<svg width="542" height="364" viewBox="0 0 542 364" fill="none" xmlns="http://www.w3.org/2000/svg">
<g filter="url(#filter0_d_482_1626)">
<rect x="130" y="102" width="281.635" height="103.291" rx="51.6456" fill="url(#paint0_linear_482_1626)" shape-rendering="crispEdges"/>
<rect x="124" y="96" width="293.635" height="115.291" rx="57.6456" stroke="#E1E1E1" stroke-opacity="0.43" stroke-width="12" shape-rendering="crispEdges"/>
</g>
<path d="M243.228 160.74L238.404 155.94L240.012 154.332L244.812 159.132L243.228 160.74ZM236.892 160.752C235.164 160.752 233.692 160.376 232.476 159.624C231.26 158.864 230.328 157.808 229.68 156.456C229.04 155.104 228.72 153.536 228.72 151.752C228.72 149.968 229.04 148.4 229.68 147.048C230.328 145.696 231.26 144.644 232.476 143.892C233.692 143.132 235.164 142.752 236.892 142.752C238.612 142.752 240.08 143.132 241.296 143.892C242.52 144.644 243.452 145.696 244.092 147.048C244.732 148.4 245.052 149.968 245.052 151.752C245.052 153.536 244.732 155.104 244.092 156.456C243.452 157.808 242.52 158.864 241.296 159.624C240.08 160.376 238.612 160.752 236.892 160.752ZM236.892 158.364C238.116 158.38 239.132 158.112 239.94 157.56C240.756 157 241.368 156.224 241.776 155.232C242.184 154.232 242.388 153.072 242.388 151.752C242.388 150.432 242.184 149.28 241.776 148.296C241.368 147.304 240.756 146.532 239.94 145.98C239.132 145.428 238.116 145.148 236.892 145.14C235.668 145.124 234.648 145.392 233.832 145.944C233.024 146.496 232.416 147.272 232.008 148.272C231.6 149.272 231.392 150.432 231.384 151.752C231.376 153.072 231.576 154.228 231.984 155.22C232.392 156.204 233.004 156.972 233.82 157.524C234.644 158.076 235.668 158.356 236.892 158.364ZM251.61 160.74C250.714 160.74 249.962 160.596 249.354 160.308C248.746 160.02 248.25 159.644 247.866 159.18C247.49 158.708 247.202 158.196 247.002 157.644C246.802 157.092 246.666 156.552 246.594 156.024C246.522 155.496 246.486 155.032 246.486 154.632V147.432H249.03V153.804C249.03 154.308 249.07 154.828 249.15 155.364C249.238 155.892 249.398 156.384 249.63 156.84C249.87 157.296 250.202 157.664 250.626 157.944C251.058 158.224 251.618 158.364 252.306 158.364C252.754 158.364 253.178 158.292 253.578 158.148C253.978 157.996 254.326 157.756 254.622 157.428C254.926 157.1 255.162 156.668 255.33 156.132C255.506 155.596 255.594 154.944 255.594 154.176L257.154 154.764C257.154 155.94 256.934 156.98 256.494 157.884C256.054 158.78 255.422 159.48 254.598 159.984C253.774 160.488 252.778 160.74 251.61 160.74ZM255.894 160.392V156.648H255.594V147.432H258.126V160.392H255.894ZM261.011 145.308V142.872H263.519V145.308H261.011ZM261.011 160.392V147.432H263.519V160.392H261.011ZM271.947 160.752C270.619 160.752 269.491 160.456 268.563 159.864C267.635 159.272 266.923 158.46 266.427 157.428C265.939 156.396 265.691 155.224 265.683 153.912C265.691 152.576 265.947 151.396 266.451 150.372C266.955 149.34 267.675 148.532 268.611 147.948C269.547 147.364 270.671 147.072 271.983 147.072C273.399 147.072 274.607 147.424 275.607 148.128C276.615 148.832 277.279 149.796 277.599 151.02L275.103 151.74C274.855 151.012 274.447 150.448 273.879 150.048C273.319 149.64 272.675 149.436 271.947 149.436C271.123 149.436 270.447 149.632 269.919 150.024C269.391 150.408 268.999 150.936 268.743 151.608C268.487 152.28 268.355 153.048 268.347 153.912C268.355 155.248 268.659 156.328 269.259 157.152C269.867 157.976 270.763 158.388 271.947 158.388C272.755 158.388 273.407 158.204 273.903 157.836C274.407 157.46 274.791 156.924 275.055 156.228L277.599 156.828C277.175 158.092 276.475 159.064 275.499 159.744C274.523 160.416 273.339 160.752 271.947 160.752ZM279.311 160.392L279.323 143.112H281.867V153.672L286.955 147.432H290.147L284.771 153.912L290.699 160.392H287.291L281.867 154.152V160.392H279.311ZM300.23 160.74C298.654 160.74 297.37 160.392 296.378 159.696C295.386 159 294.778 158.02 294.554 156.756L297.122 156.36C297.282 157.032 297.65 157.564 298.226 157.956C298.81 158.34 299.534 158.532 300.398 158.532C301.182 158.532 301.794 158.372 302.234 158.052C302.682 157.732 302.906 157.292 302.906 156.732C302.906 156.404 302.826 156.14 302.666 155.94C302.514 155.732 302.19 155.536 301.694 155.352C301.198 155.168 300.442 154.94 299.426 154.668C298.314 154.38 297.43 154.072 296.774 153.744C296.126 153.408 295.662 153.02 295.382 152.58C295.11 152.132 294.974 151.592 294.974 150.96C294.974 150.176 295.182 149.492 295.598 148.908C296.014 148.324 296.598 147.872 297.35 147.552C298.11 147.232 298.998 147.072 300.014 147.072C301.006 147.072 301.89 147.228 302.666 147.54C303.442 147.852 304.07 148.296 304.55 148.872C305.03 149.44 305.318 150.108 305.414 150.876L302.846 151.344C302.758 150.72 302.466 150.228 301.97 149.868C301.474 149.508 300.83 149.312 300.038 149.28C299.278 149.248 298.662 149.376 298.19 149.664C297.718 149.944 297.482 150.332 297.482 150.828C297.482 151.116 297.57 151.36 297.746 151.56C297.93 151.76 298.282 151.952 298.802 152.136C299.322 152.32 300.09 152.54 301.106 152.796C302.194 153.076 303.058 153.388 303.698 153.732C304.338 154.068 304.794 154.472 305.066 154.944C305.346 155.408 305.486 155.972 305.486 156.636C305.486 157.916 305.018 158.92 304.082 159.648C303.154 160.376 301.87 160.74 300.23 160.74ZM313.169 160.752C311.881 160.752 310.749 160.472 309.773 159.912C308.805 159.344 308.049 158.556 307.505 157.548C306.969 156.532 306.701 155.356 306.701 154.02C306.701 152.604 306.965 151.376 307.493 150.336C308.029 149.296 308.773 148.492 309.725 147.924C310.677 147.356 311.785 147.072 313.049 147.072C314.369 147.072 315.493 147.38 316.421 147.996C317.349 148.604 318.041 149.472 318.497 150.6C318.961 151.728 319.145 153.068 319.049 154.62H316.541V153.708C316.525 152.204 316.237 151.092 315.677 150.372C315.125 149.652 314.281 149.292 313.145 149.292C311.889 149.292 310.945 149.688 310.313 150.48C309.681 151.272 309.365 152.416 309.365 153.912C309.365 155.336 309.681 156.44 310.313 157.224C310.945 158 311.857 158.388 313.049 158.388C313.833 158.388 314.509 158.212 315.077 157.86C315.653 157.5 316.101 156.988 316.421 156.324L318.881 157.104C318.377 158.264 317.613 159.164 316.589 159.804C315.565 160.436 314.425 160.752 313.169 160.752ZM308.549 154.62V152.664H317.801V154.62H308.549ZM321.022 160.392V147.432H323.254V150.576L322.942 150.168C323.102 149.752 323.31 149.372 323.566 149.028C323.822 148.676 324.118 148.388 324.454 148.164C324.782 147.924 325.146 147.74 325.546 147.612C325.954 147.476 326.37 147.396 326.794 147.372C327.218 147.34 327.626 147.36 328.018 147.432V149.784C327.594 149.672 327.122 149.64 326.602 149.688C326.09 149.736 325.618 149.9 325.186 150.18C324.778 150.444 324.454 150.764 324.214 151.14C323.982 151.516 323.814 151.936 323.71 152.4C323.606 152.856 323.554 153.34 323.554 153.852V160.392H321.022ZM333.087 160.392L328.383 147.432H330.915L334.359 157.248L337.803 147.432H340.335L335.631 160.392H333.087ZM342.017 145.308V142.872H344.525V145.308H342.017ZM342.017 160.392V147.432H344.525V160.392H342.017ZM352.952 160.752C351.624 160.752 350.496 160.456 349.568 159.864C348.64 159.272 347.928 158.46 347.432 157.428C346.944 156.396 346.696 155.224 346.688 153.912C346.696 152.576 346.952 151.396 347.456 150.372C347.96 149.34 348.68 148.532 349.616 147.948C350.552 147.364 351.676 147.072 352.988 147.072C354.404 147.072 355.612 147.424 356.612 148.128C357.62 148.832 358.284 149.796 358.604 151.02L356.108 151.74C355.86 151.012 355.452 150.448 354.884 150.048C354.324 149.64 353.68 149.436 352.952 149.436C352.128 149.436 351.452 149.632 350.924 150.024C350.396 150.408 350.004 150.936 349.748 151.608C349.492 152.28 349.36 153.048 349.352 153.912C349.36 155.248 349.664 156.328 350.264 157.152C350.872 157.976 351.768 158.388 352.952 158.388C353.76 158.388 354.412 158.204 354.908 157.836C355.412 157.46 355.796 156.924 356.06 156.228L358.604 156.828C358.18 158.092 357.48 159.064 356.504 159.744C355.528 160.416 354.344 160.752 352.952 160.752ZM365.726 160.752C364.438 160.752 363.306 160.472 362.33 159.912C361.362 159.344 360.606 158.556 360.062 157.548C359.526 156.532 359.258 155.356 359.258 154.02C359.258 152.604 359.522 151.376 360.05 150.336C360.586 149.296 361.33 148.492 362.282 147.924C363.234 147.356 364.342 147.072 365.606 147.072C366.926 147.072 368.05 147.38 368.978 147.996C369.906 148.604 370.598 149.472 371.054 150.6C371.518 151.728 371.702 153.068 371.606 154.62H369.098V153.708C369.082 152.204 368.794 151.092 368.234 150.372C367.682 149.652 366.838 149.292 365.702 149.292C364.446 149.292 363.502 149.688 362.87 150.48C362.238 151.272 361.922 152.416 361.922 153.912C361.922 155.336 362.238 156.44 362.87 157.224C363.502 158 364.414 158.388 365.606 158.388C366.39 158.388 367.066 158.212 367.634 157.86C368.21 157.5 368.658 156.988 368.978 156.324L371.438 157.104C370.934 158.264 370.17 159.164 369.146 159.804C368.122 160.436 366.982 160.752 365.726 160.752ZM361.106 154.62V152.664H370.358V154.62H361.106Z" fill="#1E1B1B"/>
<ellipse cx="178.763" cy="152.633" rx="34.8312" ry="35.443" fill="#5CBA99"/>
<path d="M194.904 160.481V156.233C194.904 155.897 194.875 155.553 194.816 155.201C194.763 154.844 194.656 154.513 194.496 154.209C194.342 153.905 194.12 153.66 193.832 153.473C193.55 153.286 193.179 153.193 192.72 153.193C192.422 153.193 192.139 153.244 191.872 153.345C191.606 153.441 191.371 153.598 191.168 153.817C190.971 154.036 190.814 154.324 190.696 154.681C190.584 155.038 190.528 155.473 190.528 155.985L189.488 155.593C189.488 154.809 189.635 154.118 189.928 153.521C190.222 152.918 190.643 152.449 191.192 152.113C191.742 151.777 192.406 151.609 193.184 151.609C193.782 151.609 194.283 151.705 194.688 151.897C195.094 152.089 195.422 152.342 195.672 152.657C195.928 152.966 196.123 153.305 196.256 153.673C196.39 154.041 196.48 154.401 196.528 154.753C196.576 155.105 196.6 155.414 196.6 155.681V160.481H194.904ZM188.832 160.481V148.961H190.328V155.177H190.528V160.481H188.832ZM198.684 160.481V151.841H200.172V153.937L199.964 153.665C200.071 153.388 200.209 153.134 200.38 152.905C200.551 152.67 200.748 152.478 200.972 152.329C201.191 152.169 201.433 152.046 201.7 151.961C201.972 151.87 202.249 151.817 202.532 151.801C202.815 151.78 203.087 151.793 203.348 151.841V153.409C203.065 153.334 202.751 153.313 202.404 153.345C202.063 153.377 201.748 153.486 201.46 153.673C201.188 153.849 200.972 154.062 200.812 154.313C200.657 154.564 200.545 154.844 200.476 155.153C200.407 155.457 200.372 155.78 200.372 156.121V160.481H198.684Z" fill="white"/>
<path d="M158.069 161.393L158.081 159.161L165.605 152.417C166.213 151.881 166.625 151.369 166.841 150.881C167.065 150.393 167.177 149.905 167.177 149.417C167.177 148.801 167.041 148.249 166.769 147.761C166.497 147.265 166.121 146.873 165.641 146.585C165.161 146.297 164.609 146.153 163.985 146.153C163.345 146.153 162.773 146.305 162.269 146.609C161.773 146.905 161.385 147.301 161.105 147.797C160.825 148.293 160.689 148.829 160.697 149.405H158.129C158.129 148.285 158.381 147.305 158.885 146.465C159.397 145.617 160.097 144.957 160.985 144.485C161.873 144.005 162.889 143.765 164.033 143.765C165.121 143.765 166.097 144.013 166.961 144.509C167.825 144.997 168.505 145.669 169.001 146.525C169.505 147.381 169.757 148.357 169.757 149.453C169.757 150.245 169.653 150.917 169.445 151.469C169.237 152.021 168.925 152.533 168.509 153.005C168.093 153.477 167.573 153.989 166.949 154.541L161.141 159.725L160.865 159.005H169.757V161.393H158.069ZM178.766 161.405V158.393H170.966V156.017L176.582 144.125H179.45L173.834 156.017H178.766V151.337H181.31V156.017H183.026V158.393H181.31V161.405H178.766Z" fill="white"/>
<defs>
<filter id="filter0_d_482_1626" x="0" y="0" width="541.635" height="363.291" filterUnits="userSpaceOnUse" color-interpolation-filters="sRGB">
<feFlood flood-opacity="0" result="BackgroundImageFix"/>
<feColorMatrix in="SourceAlpha" type="matrix" values="0 0 0 0 0 0 0 0 0 0 0 0 0 0 0 0 0 0 127 0" result="hardAlpha"/>
<feOffset dy="28"/>
<feGaussianBlur stdDeviation="59"/>
<feComposite in2="hardAlpha" operator="out"/>
<feColorMatrix type="matrix" values="0 0 0 0 0.427425 0 0 0 0 0.42375 0 0 0 0 0.45 0 0 0 0.12 0"/>
<feBlend mode="normal" in2="BackgroundImageFix" result="effect1_dropShadow_482_1626"/>
<feBlend mode="normal" in="SourceGraphic" in2="effect1_dropShadow_482_1626" result="shape"/>
</filter>
<linearGradient id="paint0_linear_482_1626" x1="246.933" y1="-10.4051" x2="355.299" y2="327.754" gradientUnits="userSpaceOnUse">
<stop stop-color="white"/>
<stop offset="1" stop-color="white"/>
</linearGradient>
</defs>
</svg>
