<svg width="24.000000" height="19.500977" viewBox="0 0 24 19.501" fill="none" xmlns="http://www.w3.org/2000/svg" xmlns:xlink="http://www.w3.org/1999/xlink">
	<desc>
			Created with Pixso.
	</desc>
	<defs/>
	<path id="Vector" d="M7.55 19.5C16.6 19.5 21.55 11.99 21.55 5.49C21.55 5.28 21.55 5.06 21.54 4.85C22.5 4.15 23.33 3.29 24 2.3C23.1 2.7 22.14 2.96 21.17 3.07C22.2 2.46 22.97 1.49 23.33 0.35C22.37 0.92 21.31 1.33 20.21 1.55C19.47 0.76 18.48 0.24 17.41 0.06C16.35 -0.12 15.25 0.07 14.29 0.58C13.34 1.09 12.58 1.9 12.13 2.89C11.68 3.87 11.57 4.98 11.81 6.04C9.86 5.94 7.94 5.43 6.19 4.54C4.45 3.66 2.9 2.41 1.67 0.9C1.04 1.98 0.85 3.26 1.13 4.48C1.41 5.7 2.15 6.77 3.19 7.47C2.41 7.44 1.64 7.23 0.96 6.85L0.96 6.91C0.96 8.05 1.35 9.15 2.07 10.03C2.79 10.91 3.8 11.52 4.91 11.74C4.19 11.94 3.43 11.97 2.69 11.83C3 12.8 3.62 13.66 4.44 14.27C5.27 14.89 6.26 15.23 7.29 15.25C5.54 16.62 3.39 17.36 1.17 17.36C0.78 17.36 0.39 17.33 0 17.28C2.25 18.73 4.87 19.5 7.55 19.5Z" fill="#FFFFFF" fill-opacity="1.000000" fill-rule="nonzero"/>
</svg>
