<svg viewBox="0 0 541.635 362" xmlns="http://www.w3.org/2000/svg" xmlns:xlink="http://www.w3.org/1999/xlink" width="541.635010" height="362.000000" fill="none" customFrame="#000000">
	<defs>
		<g id="pixso_custom_effect_0">
			<effect x="0.000000" y="28.000000" visibility="visible" fill="rgb(108.993,108.056,114.75)" fill-opacity="0.119999997" effectType="dropShadow" stdDeviation="118" radius="0" />
		</g>
		<filter id="filter_0" width="541.635010" height="362.000000" x="0.000000" y="0.000000" filterUnits="userSpaceOnUse" customEffect="url(#pixso_custom_effect_0)" color-interpolation-filters="sRGB">
			<feFlood flood-opacity="0" result="BackgroundImageFix" />
			<feColorMatrix result="hardAlpha" in="SourceAlpha" type="matrix" values="0 0 0 0 0 0 0 0 0 0 0 0 0 0 0 0 0 0 2.32558 0 " />
			<feOffset dx="0.000000" dy="28.000000" in="hardAlpha" />
			<feGaussianBlur stdDeviation="39.3333321" />
			<feComposite k2="-1" k3="1" in2="hardAlpha" operator="out" />
			<feColorMatrix type="matrix" values="0 0 0 0 0.427425 0 0 0 0 0.42375 0 0 0 0 0.45 0 0 0 0.12 0 " />
			<feBlend result="effect_dropShadow_1" in2="BackgroundImageFix" mode="normal" />
			<feBlend result="shape" in="SourceGraphic" in2="effect_dropShadow_1" mode="normal" />
		</filter>
		<linearGradient id="paint_linear_0" x1="246.933289" x2="351.924561" y1="-8.99998474" y2="325.999939" gradientUnits="userSpaceOnUse">
			<stop stop-color="rgb(255,255,255)" offset="0" stop-opacity="1" />
			<stop stop-color="rgb(255,255,255)" offset="1" stop-opacity="1" />
		</linearGradient>
	</defs>
	<g id="Service">
		<g filter="url(#filter_0)">
			<rect id="BG" width="281.635040" height="102.000000" x="130.000000" y="102.000000" rx="51.000000" fill="url(#paint_linear_0)" />
			<rect id="BG" width="293.635040" height="114.000000" x="124.000000" y="96.000000" rx="57.000000" stroke="rgb(225.25,225.25,225.25)" stroke-opacity="0.430000007" stroke-width="12" />
		</g>
		<path id="Quick service" d="M236.892 160.552C237.868 160.552 238.764 160.428 239.58 160.18C240.396 159.924 241.128 159.56 241.776 159.088L243.228 160.54L244.812 158.932L243.36 157.48C244.488 155.92 245.052 153.944 245.052 151.552C245.052 149.768 244.732 148.204 244.092 146.86C243.452 145.508 242.524 144.452 241.308 143.692C240.092 142.932 238.62 142.552 236.892 142.552C235.164 142.552 233.692 142.932 232.476 143.692C231.26 144.452 230.328 145.508 229.68 146.86C229.04 148.204 228.72 149.768 228.72 151.552C228.72 153.336 229.04 154.904 229.68 156.256C230.328 157.6 231.26 158.652 232.476 159.412C233.692 160.172 235.164 160.552 236.892 160.552ZM236.892 158.164C235.06 158.148 233.68 157.536 232.752 156.328C231.832 155.12 231.376 153.528 231.384 151.552C231.392 150.232 231.596 149.076 231.996 148.084C232.404 147.084 233.016 146.308 233.832 145.756C234.648 145.196 235.668 144.924 236.892 144.94C238.732 144.948 240.108 145.556 241.02 146.764C241.932 147.972 242.388 149.568 242.388 151.552C242.388 153.176 242.092 154.532 241.5 155.62L240.012 154.132L238.404 155.74L239.988 157.324C239.14 157.892 238.108 158.172 236.892 158.164ZM251.61 160.54C252.546 160.54 253.374 160.372 254.094 160.036C254.822 159.7 255.422 159.236 255.894 158.644L255.894 160.192L258.126 160.192L258.126 147.232L255.594 147.232L255.594 153.976C255.594 155 255.446 155.82 255.15 156.436C254.854 157.044 254.454 157.484 253.95 157.756C253.454 158.028 252.906 158.164 252.306 158.164C251.618 158.164 251.058 158.024 250.626 157.744C250.194 157.464 249.862 157.096 249.63 156.64C249.398 156.184 249.238 155.692 249.15 155.164C249.07 154.628 249.03 154.108 249.03 153.604L249.03 147.232L246.486 147.232L246.486 154.432C246.486 154.832 246.522 155.296 246.594 155.824C246.666 156.352 246.802 156.892 247.002 157.444C247.202 157.996 247.49 158.508 247.866 158.98C248.25 159.444 248.746 159.82 249.354 160.108C249.962 160.396 250.714 160.54 251.61 160.54ZM261.011 145.108L263.519 145.108L263.519 142.672L261.011 142.672L261.011 145.108ZM261.011 160.192L263.519 160.192L263.519 147.232L261.011 147.232L261.011 160.192ZM271.947 160.552C273.339 160.552 274.523 160.216 275.499 159.544C276.475 158.872 277.175 157.9 277.599 156.628L275.055 156.028C274.791 156.724 274.407 157.26 273.903 157.636C273.407 158.004 272.755 158.188 271.947 158.188C270.763 158.188 269.867 157.776 269.259 156.952C268.659 156.128 268.355 155.048 268.347 153.712C268.355 152.416 268.647 151.348 269.223 150.508C269.807 149.66 270.715 149.236 271.947 149.236C272.675 149.236 273.319 149.44 273.879 149.848C274.447 150.248 274.855 150.812 275.103 151.54L277.599 150.82C277.279 149.604 276.615 148.644 275.607 147.94C274.607 147.228 273.399 146.872 271.983 146.872C270.679 146.872 269.555 147.164 268.611 147.748C267.675 148.332 266.955 149.14 266.451 150.172C265.947 151.196 265.691 152.376 265.683 153.712C265.691 155.024 265.939 156.196 266.427 157.228C266.923 158.26 267.635 159.072 268.563 159.664C269.499 160.256 270.627 160.552 271.947 160.552ZM279.311 160.192L281.867 160.192L281.867 153.952L287.291 160.192L290.699 160.192L284.771 153.712L290.147 147.232L286.955 147.232L281.867 153.472L281.867 142.912L279.323 142.912L279.311 160.192ZM300.23 160.54C301.87 160.54 303.154 160.176 304.082 159.448C305.018 158.72 305.486 157.716 305.486 156.436C305.486 155.764 305.346 155.196 305.066 154.732C304.794 154.268 304.338 153.868 303.698 153.532C303.058 153.188 302.194 152.876 301.106 152.596C300.09 152.34 299.322 152.12 298.802 151.936C298.29 151.744 297.942 151.552 297.758 151.36C297.574 151.16 297.482 150.916 297.482 150.628C297.482 150.132 297.718 149.744 298.19 149.464C298.662 149.176 299.278 149.048 300.038 149.08C300.83 149.112 301.474 149.312 301.97 149.68C302.466 150.04 302.758 150.528 302.846 151.144L305.414 150.676C305.27 149.524 304.706 148.604 303.722 147.916C302.738 147.22 301.502 146.872 300.014 146.872C298.494 146.872 297.274 147.228 296.354 147.94C295.434 148.644 294.974 149.584 294.974 150.76C294.974 151.392 295.11 151.932 295.382 152.38C295.662 152.82 296.126 153.204 296.774 153.532C297.43 153.86 298.314 154.172 299.426 154.468C300.442 154.74 301.198 154.968 301.694 155.152C302.19 155.336 302.514 155.532 302.666 155.74C302.826 155.94 302.906 156.204 302.906 156.532C302.906 157.092 302.682 157.532 302.234 157.852C301.794 158.172 301.182 158.332 300.398 158.332C299.534 158.332 298.81 158.14 298.226 157.756C297.65 157.372 297.282 156.84 297.122 156.16L294.554 156.556C294.778 157.82 295.386 158.8 296.378 159.496C297.37 160.192 298.654 160.54 300.23 160.54ZM313.169 160.552C314.425 160.552 315.565 160.236 316.589 159.604C317.613 158.964 318.377 158.064 318.881 156.904L316.421 156.124C315.765 157.5 314.641 158.188 313.049 158.188C311.961 158.188 311.105 157.86 310.481 157.204C309.857 156.548 309.493 155.62 309.389 154.42L319.049 154.42C319.137 152.868 318.953 151.528 318.497 150.4C318.041 149.272 317.349 148.404 316.421 147.796C315.493 147.18 314.369 146.872 313.049 146.872C311.785 146.872 310.677 147.156 309.725 147.724C308.773 148.292 308.029 149.096 307.493 150.136C306.965 151.176 306.701 152.404 306.701 153.82C306.701 155.156 306.969 156.332 307.505 157.348C308.049 158.356 308.805 159.144 309.773 159.712C310.749 160.272 311.881 160.552 313.169 160.552ZM313.145 149.092C315.105 149.092 316.217 150.216 316.481 152.464L309.449 152.464C309.609 151.368 309.997 150.532 310.613 149.956C311.229 149.38 312.073 149.092 313.145 149.092ZM321.022 160.192L323.554 160.192L323.554 153.652C323.554 152.892 323.674 152.188 323.914 151.54C324.154 150.892 324.578 150.372 325.186 149.98C325.618 149.7 326.094 149.536 326.614 149.488C327.134 149.44 327.602 149.472 328.018 149.584L328.018 147.232C327.434 147.12 326.814 147.124 326.158 147.244C325.51 147.364 324.942 147.604 324.454 147.964C323.974 148.284 323.574 148.728 323.254 149.296L323.254 147.232L321.022 147.232L321.022 160.192ZM333.087 160.192L335.631 160.192L340.335 147.232L337.803 147.232L334.359 157.048L330.915 147.232L328.383 147.232L333.087 160.192ZM342.017 145.108L344.525 145.108L344.525 142.672L342.017 142.672L342.017 145.108ZM342.017 160.192L344.525 160.192L344.525 147.232L342.017 147.232L342.017 160.192ZM352.952 160.552C354.344 160.552 355.528 160.216 356.504 159.544C357.48 158.872 358.18 157.9 358.604 156.628L356.06 156.028C355.796 156.724 355.412 157.26 354.908 157.636C354.412 158.004 353.76 158.188 352.952 158.188C351.768 158.188 350.872 157.776 350.264 156.952C349.664 156.128 349.36 155.048 349.352 153.712C349.36 152.416 349.652 151.348 350.228 150.508C350.812 149.66 351.72 149.236 352.952 149.236C353.68 149.236 354.324 149.44 354.884 149.848C355.452 150.248 355.86 150.812 356.108 151.54L358.604 150.82C358.284 149.604 357.62 148.644 356.612 147.94C355.612 147.228 354.404 146.872 352.988 146.872C351.684 146.872 350.56 147.164 349.616 147.748C348.68 148.332 347.96 149.14 347.456 150.172C346.952 151.196 346.696 152.376 346.688 153.712C346.696 155.024 346.944 156.196 347.432 157.228C347.928 158.26 348.64 159.072 349.568 159.664C350.504 160.256 351.632 160.552 352.952 160.552ZM365.725 160.552C366.982 160.552 368.122 160.236 369.146 159.604C370.169 158.964 370.934 158.064 371.438 156.904L368.978 156.124C368.322 157.5 367.198 158.188 365.605 158.188C364.518 158.188 363.661 157.86 363.038 157.204C362.414 156.548 362.049 155.62 361.945 154.42L371.605 154.42C371.693 152.868 371.51 151.528 371.053 150.4C370.598 149.272 369.906 148.404 368.978 147.796C368.049 147.18 366.926 146.872 365.605 146.872C364.341 146.872 363.234 147.156 362.281 147.724C361.329 148.292 360.586 149.096 360.049 150.136C359.521 151.176 359.258 152.404 359.258 153.82C359.258 155.156 359.526 156.332 360.061 157.348C360.605 158.356 361.362 159.144 362.329 159.712C363.305 160.272 364.438 160.552 365.725 160.552ZM365.702 149.092C367.661 149.092 368.773 150.216 369.038 152.464L362.005 152.464C362.165 151.368 362.553 150.532 363.169 149.956C363.786 149.38 364.63 149.092 365.702 149.092Z" fill="rgb(29.75,27.1469,27.1469)" fill-rule="nonzero" />
		<g id="Circle">
			<ellipse id="BG" rx="34.831188" ry="35.000000" cx="178.762833" cy="152" fill="rgb(92.194,185.938,153.35)" />
			<path id="hr" d="M188.832 160.128L190.528 160.128L190.528 155.632C190.528 154.949 190.627 154.405 190.824 154C191.027 153.589 191.294 153.293 191.624 153.112C191.955 152.931 192.32 152.84 192.72 152.84C193.179 152.84 193.552 152.933 193.84 153.12C194.128 153.307 194.35 153.552 194.504 153.856C194.659 154.16 194.763 154.491 194.816 154.848C194.875 155.2 194.904 155.544 194.904 155.88L194.904 160.128L196.6 160.128L196.6 155.328C196.6 155.061 196.576 154.752 196.528 154.4C196.48 154.048 196.39 153.688 196.256 153.32C196.123 152.952 195.928 152.613 195.672 152.304C195.422 151.989 195.094 151.736 194.688 151.544C194.283 151.352 193.782 151.256 193.184 151.256C192.56 151.256 192.006 151.368 191.52 151.592C191.04 151.816 190.643 152.125 190.328 152.52L190.328 148.608L188.832 148.608L188.832 160.128ZM198.684 160.128L200.372 160.128L200.372 155.768C200.372 155.261 200.452 154.792 200.612 154.36C200.772 153.928 201.055 153.581 201.46 153.32C201.748 153.133 202.065 153.024 202.412 152.992C202.759 152.96 203.071 152.981 203.348 153.056L203.348 151.488C202.959 151.413 202.545 151.416 202.108 151.496C201.676 151.576 201.297 151.736 200.972 151.976C200.652 152.189 200.385 152.485 200.172 152.864L200.172 151.488L198.684 151.488L198.684 160.128Z" fill="rgb(255,255,255)" fill-rule="nonzero" />
			<path id="24" d="M158.069 161.18L169.757 161.18L169.757 158.792L161.945 158.792L166.949 154.328C167.573 153.776 168.093 153.264 168.509 152.792C168.925 152.32 169.237 151.808 169.445 151.256C169.653 150.696 169.757 150.024 169.757 149.24C169.757 148.144 169.505 147.168 169.001 146.312C168.505 145.456 167.825 144.784 166.961 144.296C166.097 143.8 165.121 143.552 164.033 143.552C162.889 143.552 161.869 143.792 160.973 144.272C160.085 144.744 159.389 145.404 158.885 146.252C158.381 147.092 158.129 148.072 158.129 149.192L160.697 149.192C160.689 148.608 160.825 148.072 161.105 147.584C161.393 147.088 161.785 146.692 162.281 146.396C162.777 146.092 163.345 145.94 163.985 145.94C164.913 145.94 165.677 146.252 166.277 146.876C166.877 147.5 167.177 148.276 167.177 149.204C167.177 149.692 167.065 150.18 166.841 150.668C166.625 151.148 166.213 151.66 165.605 152.204L158.081 158.948L158.069 161.18ZM178.766 161.192L181.31 161.192L181.31 158.18L183.026 158.18L183.026 155.804L181.31 155.804L181.31 151.124L178.766 151.124L178.766 155.804L173.834 155.804L179.45 143.912L176.582 143.912L170.966 155.804L170.966 158.18L178.766 158.18L178.766 161.192Z" fill="rgb(255,255,255)" fill-rule="nonzero" />
		</g>
	</g>
</svg>
