<svg width="316" height="232" viewBox="0 0 316 232" fill="none" xmlns="http://www.w3.org/2000/svg">
<rect width="316" height="232" fill="white"/>
<path d="M80.9626 161.36C82.9546 161.36 84.6026 160.856 85.9066 159.848C87.2186 158.84 88.1306 157.484 88.6426 155.78L86.0986 155.096C85.7546 156.304 85.1546 157.252 84.2986 157.94C83.4426 158.628 82.3306 158.972 80.9626 158.972C79.7386 158.972 78.7146 158.696 77.8906 158.144C77.0746 157.592 76.4586 156.82 76.0426 155.828C75.6346 154.836 75.4346 153.68 75.4426 152.36C75.4506 151.04 75.6586 149.884 76.0666 148.892C76.4746 147.9 77.0866 147.128 77.9026 146.576C78.7186 146.024 79.7386 145.748 80.9626 145.748C82.3306 145.748 83.4426 146.092 84.2986 146.78C85.1546 147.468 85.7546 148.416 86.0986 149.624L88.6426 148.94C88.1306 147.236 87.2186 145.88 85.9066 144.872C84.6026 143.864 82.9546 143.36 80.9626 143.36C79.2346 143.36 77.7626 143.74 76.5466 144.5C75.3306 145.26 74.3986 146.316 73.7506 147.668C73.1106 149.012 72.7906 150.576 72.7906 152.36C72.7906 154.144 73.1106 155.712 73.7506 157.064C74.3986 158.408 75.3306 159.46 76.5466 160.22C77.7626 160.98 79.2346 161.36 80.9626 161.36ZM95.4459 161.348C96.3819 161.348 97.2099 161.18 97.9299 160.844C98.6579 160.508 99.2579 160.044 99.7299 159.452V161H101.962V148.04H99.4299V154.784C99.4299 155.808 99.2819 156.628 98.9859 157.244C98.6899 157.852 98.2899 158.292 97.7859 158.564C97.2899 158.836 96.7419 158.972 96.1419 158.972C95.4539 158.972 94.8939 158.832 94.4619 158.552C94.0299 158.272 93.6979 157.904 93.4659 157.448C93.2339 156.992 93.0739 156.5 92.9859 155.972C92.9059 155.436 92.8659 154.916 92.8659 154.412V148.04H90.3219V155.24C90.3219 155.64 90.3579 156.104 90.4299 156.632C90.5019 157.16 90.6379 157.7 90.8379 158.252C91.0379 158.804 91.3259 159.316 91.7019 159.788C92.0859 160.252 92.5819 160.628 93.1899 160.916C93.7979 161.204 94.5499 161.348 95.4459 161.348ZM109.564 161.348C111.204 161.348 112.487 160.984 113.415 160.256C114.352 159.528 114.82 158.524 114.82 157.244C114.82 156.572 114.68 156.004 114.4 155.54C114.128 155.076 113.672 154.676 113.032 154.34C112.392 153.996 111.528 153.684 110.44 153.404C109.424 153.148 108.655 152.928 108.135 152.744C107.623 152.552 107.275 152.36 107.091 152.168C106.907 151.968 106.815 151.724 106.815 151.436C106.815 150.94 107.051 150.552 107.523 150.272C107.996 149.984 108.612 149.856 109.371 149.888C110.164 149.92 110.808 150.12 111.303 150.488C111.8 150.848 112.092 151.336 112.18 151.952L114.748 151.484C114.604 150.332 114.04 149.412 113.056 148.724C112.072 148.028 110.836 147.68 109.348 147.68C107.828 147.68 106.608 148.036 105.687 148.748C104.767 149.452 104.307 150.392 104.307 151.568C104.307 152.2 104.443 152.74 104.715 153.188C104.995 153.628 105.459 154.012 106.107 154.34C106.763 154.668 107.647 154.98 108.76 155.276C109.776 155.548 110.532 155.776 111.027 155.96C111.524 156.144 111.848 156.34 112 156.548C112.16 156.748 112.24 157.012 112.24 157.34C112.24 157.9 112.016 158.34 111.568 158.66C111.128 158.98 110.516 159.14 109.732 159.14C108.868 159.14 108.143 158.948 107.559 158.564C106.983 158.18 106.615 157.648 106.455 156.968L103.887 157.364C104.111 158.628 104.719 159.608 105.711 160.304C106.703 161 107.987 161.348 109.564 161.348ZM124.171 161V158.876C123.323 159.004 122.583 159.032 121.951 158.96C121.327 158.88 120.871 158.596 120.583 158.108C120.431 157.844 120.347 157.52 120.331 157.136C120.323 156.752 120.319 156.3 120.319 155.78V150.056H124.171V148.04H120.319V144.44H117.799V148.04H115.315V150.056H117.799V155.9C117.799 156.604 117.807 157.236 117.823 157.796C117.847 158.348 117.999 158.892 118.279 159.428C118.599 160.028 119.067 160.468 119.683 160.748C120.299 161.028 120.999 161.18 121.783 161.204C122.567 161.228 123.363 161.16 124.171 161ZM131.202 161.36C132.49 161.36 133.61 161.072 134.562 160.496C135.514 159.912 136.25 159.108 136.77 158.084C137.298 157.052 137.562 155.86 137.562 154.508C137.562 153.172 137.302 151.992 136.782 150.968C136.262 149.936 135.526 149.132 134.574 148.556C133.622 147.972 132.498 147.68 131.202 147.68C129.93 147.68 128.818 147.968 127.866 148.544C126.914 149.12 126.174 149.92 125.646 150.944C125.118 151.968 124.854 153.156 124.854 154.508C124.854 155.844 125.114 157.028 125.634 158.06C126.154 159.092 126.886 159.9 127.83 160.484C128.782 161.068 129.906 161.36 131.202 161.36ZM131.202 158.996C129.994 158.996 129.078 158.592 128.454 157.784C127.83 156.968 127.518 155.876 127.518 154.508C127.518 153.188 127.818 152.116 128.418 151.292C129.018 150.46 129.946 150.044 131.202 150.044C132.426 150.044 133.346 150.448 133.962 151.256C134.586 152.064 134.898 153.148 134.898 154.508C134.898 155.836 134.59 156.916 133.974 157.748C133.366 158.58 132.442 158.996 131.202 158.996ZM139.467 161H141.987V152.9C141.987 152.02 142.227 151.308 142.707 150.764C143.195 150.22 143.835 149.948 144.627 149.948C145.427 149.948 146.063 150.22 146.535 150.764C147.015 151.3 147.255 152.036 147.255 152.972L147.243 161H149.751L149.763 152.9C149.763 151.924 150.023 151.188 150.543 150.692C151.071 150.196 151.691 149.948 152.403 149.948C153.187 149.948 153.819 150.212 154.299 150.74C154.779 151.268 155.019 151.996 155.019 152.924L155.007 161H157.515L157.527 152.324C157.527 150.932 157.139 149.816 156.363 148.976C155.595 148.136 154.515 147.716 153.123 147.716C152.275 147.716 151.507 147.904 150.819 148.28C150.131 148.648 149.587 149.16 149.187 149.816C148.843 149.16 148.351 148.648 147.711 148.28C147.079 147.904 146.315 147.716 145.419 147.716C144.643 147.716 143.931 147.872 143.283 148.184C142.643 148.488 142.115 148.904 141.699 149.432V148.04H139.467V161ZM170.272 161.36C171.464 161.36 172.559 161.16 173.559 160.76C174.567 160.36 175.375 159.768 175.983 158.984C176.592 158.2 176.896 157.228 176.896 156.068C176.896 155.228 176.74 154.532 176.428 153.98C176.115 153.42 175.72 152.972 175.24 152.636C174.768 152.3 174.276 152.04 173.764 151.856C173.26 151.664 172.807 151.512 172.407 151.4L169.215 150.5C168.807 150.388 168.395 150.248 167.979 150.08C167.571 149.904 167.227 149.668 166.947 149.372C166.667 149.076 166.527 148.688 166.527 148.208C166.527 147.712 166.683 147.28 166.995 146.912C167.315 146.536 167.739 146.244 168.267 146.036C168.803 145.828 169.391 145.732 170.031 145.748C171.023 145.756 171.899 146.04 172.66 146.6C173.427 147.152 173.903 147.916 174.087 148.892L176.776 148.436C176.424 146.844 175.656 145.608 174.472 144.728C173.287 143.84 171.819 143.388 170.067 143.372C168.907 143.364 167.859 143.552 166.923 143.936C165.987 144.32 165.243 144.88 164.691 145.616C164.147 146.352 163.875 147.256 163.875 148.328C163.875 149.256 164.071 150.008 164.463 150.584C164.855 151.16 165.343 151.608 165.927 151.928C166.519 152.248 167.103 152.492 167.679 152.66L172.108 153.968C172.747 154.16 173.267 154.432 173.668 154.784C174.076 155.128 174.28 155.612 174.28 156.236C174.28 156.812 174.099 157.308 173.739 157.724C173.388 158.132 172.92 158.448 172.336 158.672C171.751 158.888 171.111 158.996 170.415 158.996C169.295 158.996 168.315 158.704 167.475 158.12C166.635 157.536 166.083 156.712 165.819 155.648L163.203 156.044C163.395 157.14 163.811 158.088 164.451 158.888C165.091 159.68 165.911 160.292 166.911 160.724C167.911 161.148 169.031 161.36 170.272 161.36ZM184.481 161.36C185.737 161.36 186.877 161.044 187.901 160.412C188.925 159.772 189.689 158.872 190.193 157.712L187.733 156.932C187.077 158.308 185.953 158.996 184.361 158.996C183.273 158.996 182.417 158.668 181.793 158.012C181.169 157.356 180.805 156.428 180.701 155.228H190.361C190.449 153.676 190.265 152.336 189.809 151.208C189.353 150.08 188.661 149.212 187.733 148.604C186.805 147.988 185.681 147.68 184.361 147.68C183.097 147.68 181.989 147.964 181.037 148.532C180.085 149.1 179.341 149.904 178.805 150.944C178.277 151.984 178.013 153.212 178.013 154.628C178.013 155.964 178.281 157.14 178.817 158.156C179.361 159.164 180.117 159.952 181.085 160.52C182.061 161.08 183.193 161.36 184.481 161.36ZM184.457 149.9C186.417 149.9 187.529 151.024 187.793 153.272H180.761C180.921 152.176 181.309 151.34 181.925 150.764C182.541 150.188 183.385 149.9 184.457 149.9ZM192.333 161H194.865V154.46C194.865 153.7 194.985 152.996 195.225 152.348C195.465 151.7 195.889 151.18 196.497 150.788C196.929 150.508 197.405 150.344 197.925 150.296C198.445 150.248 198.913 150.28 199.329 150.392V148.04C198.745 147.928 198.125 147.932 197.469 148.052C196.821 148.172 196.253 148.412 195.765 148.772C195.285 149.092 194.885 149.536 194.565 150.104V148.04H192.333V161ZM204.398 161H206.942L211.646 148.04H209.114L205.67 157.856L202.226 148.04H199.694L204.398 161ZM213.328 145.916H215.836V143.48H213.328V145.916ZM213.328 161H215.836V148.04H213.328V161ZM224.264 161.36C225.656 161.36 226.84 161.024 227.816 160.352C228.792 159.68 229.492 158.708 229.916 157.436L227.372 156.836C227.108 157.532 226.724 158.068 226.22 158.444C225.724 158.812 225.072 158.996 224.264 158.996C223.08 158.996 222.184 158.584 221.576 157.76C220.976 156.936 220.672 155.856 220.664 154.52C220.672 153.224 220.964 152.156 221.54 151.316C222.124 150.468 223.032 150.044 224.264 150.044C224.992 150.044 225.636 150.248 226.196 150.656C226.764 151.056 227.172 151.62 227.42 152.348L229.916 151.628C229.596 150.412 228.932 149.452 227.924 148.748C226.924 148.036 225.716 147.68 224.3 147.68C222.996 147.68 221.872 147.972 220.928 148.556C219.992 149.14 219.272 149.948 218.768 150.98C218.264 152.004 218.008 153.184 218 154.52C218.008 155.832 218.256 157.004 218.744 158.036C219.24 159.068 219.952 159.88 220.88 160.472C221.816 161.064 222.944 161.36 224.264 161.36ZM237.037 161.36C238.293 161.36 239.433 161.044 240.457 160.412C241.481 159.772 242.245 158.872 242.749 157.712L240.289 156.932C239.633 158.308 238.509 158.996 236.917 158.996C235.829 158.996 234.973 158.668 234.349 158.012C233.725 157.356 233.361 156.428 233.257 155.228H242.917C243.005 153.676 242.821 152.336 242.365 151.208C241.909 150.08 241.217 149.212 240.289 148.604C239.361 147.988 238.237 147.68 236.917 147.68C235.653 147.68 234.545 147.964 233.593 148.532C232.641 149.1 231.897 149.904 231.361 150.944C230.833 151.984 230.569 153.212 230.569 154.628C230.569 155.964 230.837 157.14 231.373 158.156C231.917 159.164 232.673 159.952 233.641 160.52C234.617 161.08 235.749 161.36 237.037 161.36ZM237.013 149.9C238.973 149.9 240.085 151.024 240.349 153.272H233.317C233.477 152.176 233.865 151.34 234.481 150.764C235.097 150.188 235.941 149.9 237.013 149.9Z" fill="#1E1B1B"/>
<path d="M182.855 96.4463C182.782 95.7998 182.028 95.3134 181.376 95.3134C179.268 95.3134 177.398 94.0764 176.614 92.1619C175.813 90.2014 176.33 87.9154 177.9 86.475C178.394 86.0228 178.455 85.2656 178.04 84.7401C176.961 83.3702 175.735 82.1326 174.396 81.0602C173.873 80.64 173.103 80.6985 172.648 81.2016C171.278 82.7199 168.815 83.2841 166.912 82.4901C164.932 81.6572 163.683 79.6505 163.806 77.4967C163.846 76.8197 163.351 76.2315 162.676 76.1529C160.958 75.954 159.225 75.9482 157.502 76.1394C156.836 76.213 156.341 76.7873 156.363 77.4557C156.438 79.5885 155.174 81.5597 153.214 82.3628C151.334 83.1309 148.888 82.5709 147.52 81.066C147.068 80.5702 146.312 80.5093 145.784 80.9205C144.406 82.0021 143.153 83.2405 142.064 84.5992C141.639 85.1274 141.702 85.8929 142.201 86.3467C143.802 87.7967 144.318 90.1023 143.487 92.0857C142.693 93.9765 140.73 95.1946 138.483 95.1946C137.753 95.1711 137.234 95.6611 137.154 96.3244C136.952 98.0517 136.949 99.8127 137.144 101.554C137.217 102.203 137.993 102.686 138.652 102.686C140.655 102.635 142.578 103.874 143.385 105.837C144.189 107.797 143.671 110.082 142.099 111.525C141.607 111.977 141.544 112.732 141.959 113.257C143.027 114.619 144.254 115.857 145.597 116.939C146.124 117.363 146.891 117.304 147.348 116.8C148.724 115.278 151.186 114.715 153.081 115.511C155.067 116.341 156.316 118.348 156.194 120.502C156.154 121.179 156.65 121.769 157.322 121.846C158.201 121.949 159.085 122 159.972 122C160.813 122 161.655 121.954 162.497 121.86C163.164 121.786 163.657 121.212 163.635 120.543C163.558 118.411 164.824 116.44 166.782 115.638C168.675 114.865 171.11 115.431 172.478 116.934C172.933 117.428 173.685 117.489 174.214 117.079C175.59 116 176.841 114.762 177.935 113.4C178.36 112.873 178.299 112.106 177.798 111.652C176.197 110.203 175.678 107.896 176.509 105.915C177.291 104.049 179.181 102.797 181.214 102.797L181.499 102.804C182.159 102.858 182.765 102.35 182.845 101.676C183.048 99.9473 183.05 98.1884 182.855 96.4463ZM160 112.26C152.676 112.26 146.74 106.323 146.74 99C146.74 91.6769 152.676 85.7405 160 85.7405C167.323 85.7405 173.259 91.6769 173.259 99C173.259 101.486 172.574 103.811 171.384 105.799L165.578 99.9925C165.998 99.0014 166.22 97.927 166.22 96.8181C166.22 94.6468 165.374 92.6055 163.839 91.0703C162.303 89.5352 160.262 88.6897 158.091 88.6897C157.367 88.6897 156.646 88.786 155.948 88.976C155.642 89.0593 155.392 89.3112 155.311 89.6173C155.228 89.9304 155.322 90.2513 155.566 90.4962C155.566 90.4962 158.433 93.3847 159.392 94.3436C159.492 94.444 159.492 94.6838 159.478 94.7701L159.469 94.8332C159.372 95.8875 159.186 97.1531 159.032 97.6395C159.011 97.66 158.992 97.6773 158.971 97.6984C158.949 97.7205 158.929 97.7418 158.907 97.7636C158.414 97.9218 157.129 98.1104 156.058 98.2063L156.059 98.2005L156.01 98.2126C156.002 98.2136 155.986 98.2148 155.965 98.2148C155.849 98.2148 155.679 98.1824 155.524 98.0278C154.526 97.0296 151.772 94.2952 151.772 94.2952C151.525 94.049 151.271 93.9972 151.102 93.9972C150.709 93.9972 150.356 94.2817 150.245 94.6897C149.487 97.4953 150.291 100.513 152.343 102.566C153.879 104.101 155.92 104.947 158.091 104.947C159.2 104.947 160.275 104.725 161.266 104.304L167.135 110.174C165.074 111.492 162.627 112.26 160 112.26Z" fill="#1E1B1B"/>
</svg>
