<svg width="316" height="232" viewBox="0 0 316 232" fill="none" xmlns="http://www.w3.org/2000/svg">
<path d="M0 0H316V232H0V0Z" fill="white"/>
<path d="M86.0781 175V157.72H97.1181V160.084H88.5861V164.932H95.6781V167.296H88.5861V172.636H97.1181V175H86.0781ZM108.376 175V168.628C108.376 168.124 108.332 167.608 108.244 167.08C108.164 166.544 108.004 166.048 107.764 165.592C107.532 165.136 107.2 164.768 106.768 164.488C106.344 164.208 105.788 164.068 105.1 164.068C104.652 164.068 104.228 164.144 103.828 164.296C103.428 164.44 103.076 164.676 102.772 165.004C102.476 165.332 102.24 165.764 102.064 166.3C101.896 166.836 101.812 167.488 101.812 168.256L100.252 167.668C100.252 166.492 100.472 165.456 100.912 164.56C101.352 163.656 101.984 162.952 102.808 162.448C103.632 161.944 104.628 161.692 105.796 161.692C106.692 161.692 107.444 161.836 108.052 162.124C108.66 162.412 109.152 162.792 109.528 163.264C109.912 163.728 110.204 164.236 110.404 164.788C110.604 165.34 110.74 165.88 110.812 166.408C110.884 166.936 110.92 167.4 110.92 167.8V175H108.376ZM99.268 175V162.04H101.512V165.784H101.812V175H99.268ZM118.666 181.12C117.97 181.12 117.294 181.012 116.638 180.796C115.99 180.58 115.398 180.26 114.862 179.836C114.326 179.42 113.882 178.904 113.53 178.288L115.846 177.112C116.126 177.664 116.526 178.068 117.046 178.324C117.566 178.58 118.114 178.708 118.69 178.708C119.402 178.708 120.01 178.58 120.514 178.324C121.018 178.076 121.398 177.7 121.654 177.196C121.918 176.692 122.046 176.068 122.038 175.324V171.7H122.338V162.04H124.558V175.348C124.558 175.692 124.546 176.02 124.522 176.332C124.498 176.644 124.454 176.956 124.39 177.268C124.206 178.14 123.854 178.86 123.334 179.428C122.822 179.996 122.166 180.42 121.366 180.7C120.574 180.98 119.674 181.12 118.666 181.12ZM118.474 175.36C117.266 175.36 116.222 175.06 115.342 174.46C114.47 173.86 113.794 173.044 113.314 172.012C112.842 170.972 112.606 169.804 112.606 168.508C112.606 167.204 112.846 166.04 113.326 165.016C113.806 163.984 114.486 163.172 115.366 162.58C116.254 161.98 117.306 161.68 118.522 161.68C119.746 161.68 120.774 161.98 121.606 162.58C122.446 163.172 123.078 163.984 123.502 165.016C123.934 166.048 124.15 167.212 124.15 168.508C124.15 169.804 123.934 170.968 123.502 172C123.07 173.032 122.434 173.852 121.594 174.46C120.754 175.06 119.714 175.36 118.474 175.36ZM118.822 173.092C119.646 173.092 120.318 172.896 120.838 172.504C121.358 172.112 121.738 171.572 121.978 170.884C122.218 170.196 122.338 169.404 122.338 168.508C122.338 167.612 122.214 166.82 121.966 166.132C121.726 165.444 121.35 164.908 120.838 164.524C120.334 164.14 119.69 163.948 118.906 163.948C118.074 163.948 117.39 164.152 116.854 164.56C116.318 164.968 115.918 165.516 115.654 166.204C115.398 166.892 115.27 167.66 115.27 168.508C115.27 169.364 115.398 170.14 115.654 170.836C115.918 171.524 116.31 172.072 116.83 172.48C117.358 172.888 118.022 173.092 118.822 173.092ZM127.447 159.916V157.48H129.955V159.916H127.447ZM127.447 175V162.04H129.955V175H127.447ZM141.935 175V168.628C141.935 168.124 141.891 167.608 141.803 167.08C141.723 166.544 141.563 166.048 141.323 165.592C141.091 165.136 140.759 164.768 140.327 164.488C139.903 164.208 139.347 164.068 138.659 164.068C138.211 164.068 137.787 164.144 137.387 164.296C136.987 164.44 136.635 164.676 136.331 165.004C136.035 165.332 135.799 165.764 135.623 166.3C135.455 166.836 135.371 167.488 135.371 168.256L133.811 167.668C133.811 166.492 134.031 165.456 134.471 164.56C134.911 163.656 135.543 162.952 136.367 162.448C137.191 161.944 138.187 161.692 139.355 161.692C140.251 161.692 141.003 161.836 141.611 162.124C142.219 162.412 142.711 162.792 143.087 163.264C143.471 163.728 143.763 164.236 143.963 164.788C144.163 165.34 144.299 165.88 144.371 166.408C144.443 166.936 144.479 167.4 144.479 167.8V175H141.935ZM132.827 175V162.04H135.071V165.784H135.371V175H132.827ZM152.468 175.36C151.18 175.36 150.048 175.08 149.072 174.52C148.104 173.952 147.348 173.164 146.804 172.156C146.268 171.14 146 169.964 146 168.628C146 167.212 146.264 165.984 146.792 164.944C147.328 163.904 148.072 163.1 149.024 162.532C149.976 161.964 151.084 161.68 152.348 161.68C153.668 161.68 154.792 161.988 155.72 162.604C156.648 163.212 157.34 164.08 157.796 165.208C158.26 166.336 158.444 167.676 158.348 169.228H155.84V168.316C155.824 166.812 155.536 165.7 154.976 164.98C154.424 164.26 153.58 163.9 152.444 163.9C151.188 163.9 150.244 164.296 149.612 165.088C148.98 165.88 148.664 167.024 148.664 168.52C148.664 169.944 148.98 171.048 149.612 171.832C150.244 172.608 151.156 172.996 152.348 172.996C153.132 172.996 153.808 172.82 154.376 172.468C154.952 172.108 155.4 171.596 155.72 170.932L158.18 171.712C157.676 172.872 156.912 173.772 155.888 174.412C154.864 175.044 153.724 175.36 152.468 175.36ZM147.848 169.228V167.272H157.1V169.228H147.848ZM164.405 175V157.72H171.389C171.557 157.72 171.765 157.728 172.013 157.744C172.261 157.752 172.497 157.776 172.721 157.816C173.681 157.968 174.481 158.296 175.121 158.8C175.769 159.304 176.253 159.94 176.573 160.708C176.893 161.476 177.053 162.324 177.053 163.252C177.053 164.628 176.701 165.816 175.997 166.816C175.293 167.808 174.237 168.428 172.829 168.676L171.809 168.796H166.913V175H164.405ZM174.509 175L171.101 167.968L173.633 167.32L177.377 175H174.509ZM166.913 166.42H171.293C171.453 166.42 171.629 166.412 171.821 166.396C172.021 166.38 172.209 166.352 172.385 166.312C172.897 166.192 173.309 165.972 173.621 165.652C173.933 165.324 174.157 164.948 174.293 164.524C174.429 164.1 174.497 163.676 174.497 163.252C174.497 162.828 174.429 162.408 174.293 161.992C174.157 161.568 173.933 161.196 173.621 160.876C173.309 160.548 172.897 160.324 172.385 160.204C172.209 160.156 172.021 160.124 171.821 160.108C171.629 160.092 171.453 160.084 171.293 160.084H166.913V166.42ZM185.043 175.36C183.755 175.36 182.623 175.08 181.647 174.52C180.679 173.952 179.923 173.164 179.379 172.156C178.843 171.14 178.575 169.964 178.575 168.628C178.575 167.212 178.839 165.984 179.367 164.944C179.903 163.904 180.647 163.1 181.599 162.532C182.551 161.964 183.659 161.68 184.923 161.68C186.243 161.68 187.367 161.988 188.295 162.604C189.223 163.212 189.915 164.08 190.371 165.208C190.835 166.336 191.019 167.676 190.923 169.228H188.415V168.316C188.399 166.812 188.111 165.7 187.551 164.98C186.999 164.26 186.155 163.9 185.019 163.9C183.763 163.9 182.819 164.296 182.187 165.088C181.555 165.88 181.239 167.024 181.239 168.52C181.239 169.944 181.555 171.048 182.187 171.832C182.819 172.608 183.731 172.996 184.923 172.996C185.707 172.996 186.383 172.82 186.951 172.468C187.527 172.108 187.975 171.596 188.295 170.932L190.755 171.712C190.251 172.872 189.487 173.772 188.463 174.412C187.439 175.044 186.299 175.36 185.043 175.36ZM180.423 169.228V167.272H189.675V169.228H180.423ZM198.627 175.36C197.387 175.36 196.347 175.06 195.507 174.46C194.667 173.852 194.031 173.032 193.599 172C193.167 170.968 192.951 169.804 192.951 168.508C192.951 167.212 193.163 166.048 193.587 165.016C194.019 163.984 194.651 163.172 195.483 162.58C196.323 161.98 197.355 161.68 198.579 161.68C199.795 161.68 200.843 161.98 201.723 162.58C202.611 163.172 203.295 163.984 203.775 165.016C204.255 166.04 204.495 167.204 204.495 168.508C204.495 169.804 204.255 170.972 203.775 172.012C203.303 173.044 202.627 173.86 201.747 174.46C200.875 175.06 199.835 175.36 198.627 175.36ZM192.531 180.76V162.04H194.763V171.364H195.051V180.76H192.531ZM198.279 173.092C199.079 173.092 199.739 172.888 200.259 172.48C200.787 172.072 201.179 171.524 201.435 170.836C201.699 170.14 201.831 169.364 201.831 168.508C201.831 167.66 201.699 166.892 201.435 166.204C201.179 165.516 200.783 164.968 200.247 164.56C199.711 164.152 199.027 163.948 198.195 163.948C197.411 163.948 196.763 164.14 196.251 164.524C195.747 164.908 195.371 165.444 195.123 166.132C194.883 166.82 194.763 167.612 194.763 168.508C194.763 169.404 194.883 170.196 195.123 170.884C195.363 171.572 195.743 172.112 196.263 172.504C196.783 172.896 197.455 173.092 198.279 173.092ZM210.085 175.36C209.125 175.36 208.321 175.184 207.673 174.832C207.025 174.472 206.533 174 206.197 173.416C205.869 172.824 205.705 172.176 205.705 171.472C205.705 170.816 205.821 170.24 206.053 169.744C206.285 169.248 206.629 168.828 207.085 168.484C207.541 168.132 208.101 167.848 208.765 167.632C209.341 167.464 209.993 167.316 210.721 167.188C211.449 167.06 212.213 166.94 213.013 166.828C213.821 166.716 214.621 166.604 215.413 166.492L214.501 166.996C214.517 165.98 214.301 165.228 213.853 164.74C213.413 164.244 212.653 163.996 211.573 163.996C210.893 163.996 210.269 164.156 209.701 164.476C209.133 164.788 208.737 165.308 208.513 166.036L206.173 165.316C206.493 164.204 207.101 163.32 207.997 162.664C208.901 162.008 210.101 161.68 211.597 161.68C212.757 161.68 213.765 161.88 214.621 162.28C215.485 162.672 216.117 163.296 216.517 164.152C216.725 164.576 216.853 165.024 216.901 165.496C216.949 165.968 216.973 166.476 216.973 167.02V175H214.753V172.036L215.185 172.42C214.649 173.412 213.965 174.152 213.133 174.64C212.309 175.12 211.293 175.36 210.085 175.36ZM210.529 173.308C211.241 173.308 211.853 173.184 212.365 172.936C212.877 172.68 213.289 172.356 213.601 171.964C213.913 171.572 214.117 171.164 214.213 170.74C214.349 170.356 214.425 169.924 214.441 169.444C214.465 168.964 214.477 168.58 214.477 168.292L215.293 168.592C214.501 168.712 213.781 168.82 213.133 168.916C212.485 169.012 211.897 169.108 211.369 169.204C210.849 169.292 210.385 169.4 209.977 169.528C209.633 169.648 209.325 169.792 209.053 169.96C208.789 170.128 208.577 170.332 208.417 170.572C208.265 170.812 208.189 171.104 208.189 171.448C208.189 171.784 208.273 172.096 208.441 172.384C208.609 172.664 208.865 172.888 209.209 173.056C209.553 173.224 209.993 173.308 210.529 173.308ZM219.609 159.916V157.48H222.117V159.916H219.609ZM219.609 175V162.04H222.117V175H219.609ZM225.001 175V162.04H227.233V165.184L226.921 164.776C227.081 164.36 227.289 163.98 227.545 163.636C227.801 163.284 228.097 162.996 228.433 162.772C228.761 162.532 229.125 162.348 229.525 162.22C229.933 162.084 230.349 162.004 230.773 161.98C231.197 161.948 231.605 161.968 231.997 162.04V164.392C231.573 164.28 231.101 164.248 230.581 164.296C230.069 164.344 229.597 164.508 229.165 164.788C228.757 165.052 228.433 165.372 228.193 165.748C227.961 166.124 227.793 166.544 227.689 167.008C227.585 167.464 227.533 167.948 227.533 168.46V175H225.001Z" fill="#1E1B1B"/>
<path d="M171.977 94.1367C170.602 94.1367 169.423 93.2872 168.936 92.0859H166.07V89.625H168.936C169.423 88.4237 170.602 87.5742 171.977 87.5742C173.786 87.5742 175.258 89.0462 175.258 90.8555C175.258 92.6647 173.786 94.1367 171.977 94.1367Z" fill="#1E1B1B"/>
<path d="M177.719 101.109C177.179 101.109 176.671 100.978 176.221 100.746L173.174 103.285C172.953 103.469 172.675 103.57 172.387 103.57H166.07V101.109H171.941L174.613 98.8832C174.5 98.5519 174.438 98.1973 174.438 97.8281C174.438 96.0188 175.909 94.5469 177.719 94.5469C179.528 94.5469 181 96.0188 181 97.8281C181 99.6374 179.528 101.109 177.719 101.109Z" fill="#1E1B1B"/>
<path d="M177.719 111.363C176.344 111.363 175.166 110.514 174.678 109.312H166.07V106.852H174.678C175.166 105.65 176.344 104.801 177.719 104.801C179.528 104.801 181 106.273 181 108.082C181 109.891 179.528 111.363 177.719 111.363Z" fill="#1E1B1B"/>
<path d="M173.174 112.879L176.221 115.418C176.671 115.186 177.179 115.055 177.719 115.055C179.528 115.055 181 116.527 181 118.336C181 120.145 179.528 121.617 177.719 121.617C175.909 121.617 174.438 120.145 174.438 118.336C174.438 117.967 174.5 117.612 174.613 117.281L171.941 115.055H166.07V112.594H172.387C172.675 112.594 172.953 112.695 173.174 112.879Z" fill="#1E1B1B"/>
<path d="M171.977 122.027C173.786 122.027 175.258 123.499 175.258 125.309C175.258 127.118 173.786 128.59 171.977 128.59C170.602 128.59 169.423 127.74 168.936 126.539H166.07V124.078H168.936C169.423 122.877 170.602 122.027 171.977 122.027Z" fill="#1E1B1B"/>
<path d="M151.305 108.082C151.305 103.333 155.169 99.4688 159.918 99.4688C161.238 99.4688 162.49 99.7678 163.609 100.301V115.863C162.49 116.396 161.238 116.695 159.918 116.695C155.169 116.695 151.305 112.831 151.305 108.082Z" fill="#1E1B1B"/>
<path d="M162.379 129H157.457C156.777 129 156.227 128.449 156.227 127.77V126.168C153.918 125.698 151.708 124.782 149.74 123.481L148.607 124.613C148.126 125.094 147.347 125.094 146.867 124.613L143.387 121.133C142.906 120.653 142.906 119.874 143.387 119.393L144.519 118.26C143.218 116.292 142.302 114.082 141.832 111.773H140.23C139.551 111.773 139 111.223 139 110.543V105.621C139 104.942 139.551 104.391 140.23 104.391H141.832C142.302 102.082 143.218 99.8721 144.519 97.9038L143.387 96.771C143.156 96.5402 143.026 96.2273 143.026 95.901C143.026 95.5746 143.156 95.2618 143.387 95.031L146.867 91.5507C147.347 91.0701 148.126 91.0701 148.607 91.5507L149.74 92.6835C151.708 91.3819 153.918 90.4666 156.227 89.9962V88.3945C156.227 87.715 156.777 87.1641 157.457 87.1641H162.379C163.058 87.1641 163.609 87.715 163.609 88.3945V97.6413C162.454 97.2316 161.212 97.0078 159.918 97.0078C153.812 97.0078 148.844 101.976 148.844 108.082C148.844 114.188 153.812 119.156 159.918 119.156C161.212 119.156 162.454 118.932 163.609 118.523V127.77C163.609 128.449 163.058 129 162.379 129Z" fill="#1E1B1B"/>
</svg>
