<svg width="316" height="232" viewBox="0 0 316 232" fill="none" xmlns="http://www.w3.org/2000/svg">
<rect width="316" height="232" fill="#FF6433"/>
<path d="M90.7258 161H93.2218L96.9298 148.076L100.638 161H103.134L108.162 143.72H105.522L101.886 156.788L98.2498 143.72L95.6098 143.732L91.9738 156.788L88.3378 143.72H85.7098L90.7258 161ZM109.443 161H111.987V154.256C111.987 153.232 112.135 152.416 112.431 151.808C112.735 151.192 113.135 150.748 113.631 150.476C114.127 150.204 114.675 150.068 115.275 150.068C115.963 150.068 116.523 150.208 116.955 150.488C117.387 150.768 117.719 151.136 117.951 151.592C118.183 152.048 118.339 152.544 118.419 153.08C118.507 153.608 118.551 154.124 118.551 154.628V161H121.095V153.8C121.095 153.4 121.059 152.936 120.987 152.408C120.915 151.88 120.779 151.34 120.579 150.788C120.379 150.236 120.087 149.728 119.703 149.264C119.327 148.792 118.835 148.412 118.227 148.124C117.619 147.836 116.867 147.692 115.971 147.692C115.035 147.692 114.203 147.86 113.475 148.196C112.755 148.532 112.159 148.996 111.687 149.588V143.72H109.443V161ZM129.249 161.36C130.505 161.36 131.645 161.044 132.669 160.412C133.693 159.772 134.457 158.872 134.961 157.712L132.501 156.932C131.845 158.308 130.721 158.996 129.129 158.996C128.041 158.996 127.185 158.668 126.561 158.012C125.937 157.356 125.573 156.428 125.469 155.228H135.129C135.217 153.676 135.033 152.336 134.577 151.208C134.121 150.08 133.429 149.212 132.501 148.604C131.573 147.988 130.449 147.68 129.129 147.68C127.865 147.68 126.757 147.964 125.805 148.532C124.853 149.1 124.109 149.904 123.573 150.944C123.045 151.984 122.781 153.212 122.781 154.628C122.781 155.964 123.049 157.14 123.585 158.156C124.129 159.164 124.885 159.952 125.853 160.52C126.829 161.08 127.961 161.36 129.249 161.36ZM129.225 149.9C131.185 149.9 132.297 151.024 132.561 153.272H125.529C125.689 152.176 126.077 151.34 126.693 150.764C127.309 150.188 128.153 149.9 129.225 149.9ZM142.849 161.36C144.105 161.36 145.245 161.044 146.269 160.412C147.293 159.772 148.057 158.872 148.561 157.712L146.101 156.932C145.445 158.308 144.321 158.996 142.729 158.996C141.641 158.996 140.785 158.668 140.161 158.012C139.537 157.356 139.173 156.428 139.069 155.228H148.729C148.817 153.676 148.633 152.336 148.177 151.208C147.721 150.08 147.029 149.212 146.101 148.604C145.173 147.988 144.049 147.68 142.729 147.68C141.465 147.68 140.357 147.964 139.405 148.532C138.453 149.1 137.709 149.904 137.173 150.944C136.645 151.984 136.381 153.212 136.381 154.628C136.381 155.964 136.649 157.14 137.185 158.156C137.729 159.164 138.485 159.952 139.453 160.52C140.429 161.08 141.561 161.36 142.849 161.36ZM142.825 149.9C144.785 149.9 145.897 151.024 146.161 153.272H139.129C139.289 152.176 139.677 151.34 140.293 150.764C140.909 150.188 141.753 149.9 142.825 149.9ZM150.941 161H153.449V143.36H150.941V161ZM160.418 161H162.926V154.796H167.51L170.522 161H173.39L170.126 154.304C171.11 153.88 171.846 153.22 172.334 152.324C172.822 151.428 173.066 150.404 173.066 149.252C173.066 147.852 172.706 146.652 171.986 145.652C171.266 144.652 170.182 144.04 168.734 143.816C168.51 143.776 168.274 143.752 168.026 143.744C167.778 143.728 167.57 143.72 167.402 143.72H160.418V161ZM162.926 152.42V146.084H167.306C167.466 146.084 167.642 146.092 167.834 146.108C168.034 146.124 168.222 146.156 168.398 146.204C169.166 146.38 169.71 146.772 170.03 147.38C170.35 147.988 170.51 148.612 170.51 149.252C170.51 149.884 170.35 150.508 170.03 151.124C169.71 151.732 169.166 152.128 168.398 152.312C168.222 152.352 168.034 152.38 167.834 152.396C167.642 152.412 167.466 152.42 167.306 152.42H162.926ZM181.055 161.36C182.311 161.36 183.451 161.044 184.475 160.412C185.499 159.772 186.263 158.872 186.767 157.712L184.307 156.932C183.651 158.308 182.527 158.996 180.935 158.996C179.847 158.996 178.991 158.668 178.367 158.012C177.743 157.356 177.379 156.428 177.275 155.228H186.935C187.023 153.676 186.839 152.336 186.383 151.208C185.927 150.08 185.235 149.212 184.307 148.604C183.379 147.988 182.255 147.68 180.935 147.68C179.671 147.68 178.563 147.964 177.611 148.532C176.659 149.1 175.915 149.904 175.379 150.944C174.851 151.984 174.587 153.212 174.587 154.628C174.587 155.964 174.855 157.14 175.391 158.156C175.935 159.164 176.691 159.952 177.659 160.52C178.635 161.08 179.767 161.36 181.055 161.36ZM181.031 149.9C182.991 149.9 184.103 151.024 184.367 153.272H177.335C177.495 152.176 177.883 151.34 178.499 150.764C179.115 150.188 179.959 149.9 181.031 149.9ZM188.544 166.76H191.064V160.088C191.52 160.496 192.044 160.808 192.636 161.024C193.236 161.248 193.904 161.36 194.64 161.36C195.848 161.36 196.888 161.06 197.76 160.46C198.64 159.852 199.316 159.032 199.788 158C200.268 156.968 200.508 155.804 200.508 154.508C200.508 153.204 200.268 152.04 199.788 151.016C199.308 149.984 198.624 149.172 197.736 148.58C196.856 147.98 195.808 147.68 194.592 147.68C193.792 147.68 193.072 147.816 192.432 148.088C191.792 148.352 191.24 148.724 190.776 149.204V148.04H188.544V166.76ZM194.292 159.092C193.06 159.092 192.164 158.664 191.604 157.808C191.052 156.952 190.776 155.852 190.776 154.508C190.776 153.164 191.052 152.068 191.604 151.22C192.156 150.372 193.024 149.948 194.208 149.948C195.04 149.948 195.724 150.152 196.26 150.56C196.796 150.968 197.192 151.516 197.448 152.204C197.712 152.892 197.844 153.66 197.844 154.508C197.844 155.364 197.716 156.14 197.46 156.836C197.204 157.524 196.812 158.072 196.284 158.48C195.764 158.888 195.1 159.092 194.292 159.092ZM206.097 161.36C208.161 161.36 209.717 160.612 210.765 159.116V161H212.985V153.02C212.985 152.476 212.961 151.968 212.913 151.496C212.865 151.024 212.737 150.576 212.529 150.152C212.129 149.296 211.497 148.672 210.633 148.28C209.777 147.88 208.769 147.68 207.609 147.68C206.113 147.68 204.913 148.008 204.009 148.664C203.105 149.32 202.497 150.204 202.185 151.316L204.525 152.036C204.749 151.316 205.145 150.796 205.713 150.476C206.281 150.156 206.905 149.996 207.585 149.996C208.593 149.996 209.321 150.212 209.769 150.644C210.225 151.068 210.473 151.728 210.513 152.624C209.457 152.768 208.425 152.92 207.417 153.08C206.409 153.232 205.529 153.416 204.777 153.632C203.777 153.952 203.017 154.428 202.497 155.06C201.977 155.692 201.717 156.496 201.717 157.472C201.717 158.176 201.881 158.824 202.209 159.416C202.545 160 203.037 160.472 203.685 160.832C204.341 161.184 205.145 161.36 206.097 161.36ZM206.541 159.308C205.741 159.308 205.149 159.124 204.765 158.756C204.389 158.388 204.201 157.952 204.201 157.448C204.201 156.936 204.369 156.532 204.705 156.236C205.049 155.94 205.477 155.704 205.989 155.528C206.533 155.368 207.173 155.228 207.909 155.108C208.653 154.988 209.513 154.856 210.489 154.712C210.481 155.016 210.461 155.356 210.429 155.732C210.397 156.108 210.329 156.444 210.225 156.74C210.129 157.164 209.925 157.572 209.613 157.964C209.309 158.356 208.897 158.68 208.377 158.936C207.865 159.184 207.253 159.308 206.541 159.308ZM215.621 145.916H218.129V143.48H215.621V145.916ZM215.621 161H218.129V148.04H215.621V161ZM221.013 161H223.545V154.46C223.545 153.7 223.665 152.996 223.905 152.348C224.145 151.7 224.569 151.18 225.177 150.788C225.609 150.508 226.085 150.344 226.605 150.296C227.125 150.248 227.593 150.28 228.009 150.392V148.04C227.425 147.928 226.805 147.932 226.149 148.052C225.501 148.172 224.933 148.412 224.445 148.772C223.965 149.092 223.565 149.536 223.245 150.104V148.04H221.013V161Z" fill="white"/>
<path d="M158 83.6667C149.545 83.6667 142.667 90.5455 142.667 99.0001C142.667 107.455 149.545 114.333 158 114.333C166.455 114.333 173.333 107.455 173.333 99.0001C173.333 90.5455 166.455 83.6667 158 83.6667ZM165.844 89.3943C166.017 89.2025 166.26 89.0892 166.518 89.0789C166.741 89.0537 167.027 89.1622 167.215 89.34C169.202 91.2221 170.554 93.6179 171.119 96.2683C171.209 96.6913 171.005 97.1218 170.621 97.3202C169.683 97.805 168.57 98.0399 167.503 98.0399C166.112 98.0399 164.794 97.6411 164.031 96.8775C162.406 95.2538 163.083 92.4565 165.844 89.3943ZM150.155 108.756C149.983 108.947 149.74 109.062 149.482 109.072C149.47 109.073 149.457 109.073 149.444 109.073C149.199 109.073 148.963 108.979 148.785 108.811C146.798 106.929 145.446 104.533 144.881 101.882C144.791 101.459 144.995 101.028 145.379 100.83C147.539 99.7151 150.62 99.9228 151.969 101.272C153.592 102.896 152.914 105.693 150.155 108.756ZM151.969 96.8776C151.205 97.6412 149.888 98.04 148.497 98.04C147.43 98.04 146.318 97.805 145.379 97.3203C144.995 97.1219 144.791 96.6914 144.881 96.2684C145.446 93.618 146.797 91.2222 148.785 89.3401C148.972 89.1623 149.248 89.0519 149.482 89.079C149.74 89.0894 149.983 89.2026 150.155 89.3944C152.916 92.4565 153.594 95.2538 151.969 96.8776ZM162.084 111.779C160.757 112.202 159.383 112.417 158 112.417C156.617 112.417 155.243 112.203 153.916 111.779C153.495 111.645 153.219 111.24 153.249 110.8C153.489 107.351 155.531 104.75 158 104.75C160.469 104.75 162.511 107.351 162.75 110.8C162.78 111.24 162.505 111.645 162.084 111.779ZM154.167 99.0001C154.167 96.886 155.887 95.1667 158 95.1667C160.113 95.1667 161.833 96.8859 161.833 99.0001C161.833 101.114 160.113 102.833 158 102.833C155.887 102.833 154.167 101.114 154.167 99.0001ZM162.75 87.2764C162.511 90.7242 160.469 93.325 158 93.325C155.531 93.325 153.489 90.7242 153.249 87.2764C153.219 86.8356 153.493 86.4313 153.914 86.2975C156.568 85.4495 159.432 85.4495 162.086 86.2975C162.507 86.4313 162.78 86.8356 162.75 87.2764ZM171.119 101.729C170.554 104.38 169.202 106.776 167.215 108.658C167.037 108.827 166.801 108.92 166.556 108.92C166.543 108.92 166.529 108.92 166.518 108.919C166.26 108.909 166.017 108.796 165.844 108.604C163.084 105.542 162.406 102.744 164.031 101.12C165.38 99.7695 168.459 99.5645 170.621 100.677C171.005 100.876 171.209 101.306 171.119 101.729Z" fill="white"/>
<path d="M158 76C145.317 76 135 86.318 135 99C135 111.682 145.317 122 158 122C170.683 122 181 111.682 181 99C181 86.318 170.683 76 158 76ZM158 116.25C148.488 116.25 140.75 108.511 140.75 99C140.75 89.4887 148.488 81.75 158 81.75C167.512 81.75 175.25 89.4887 175.25 99C175.25 108.511 167.512 116.25 158 116.25Z" fill="white"/>
</svg>
