<svg width="316" height="232" viewBox="0 0 316 232" fill="none" xmlns="http://www.w3.org/2000/svg">
<rect width="316" height="232" fill="white"/>
<path d="M73.2491 161H75.7571V143.72H73.2491V161ZM78.6286 161H81.1726V154.256C81.1726 153.232 81.3206 152.416 81.6166 151.808C81.9206 151.192 82.3206 150.748 82.8166 150.476C83.3126 150.204 83.8606 150.068 84.4606 150.068C85.1486 150.068 85.7086 150.208 86.1406 150.488C86.5726 150.768 86.9046 151.136 87.1366 151.592C87.3686 152.048 87.5246 152.544 87.6046 153.08C87.6926 153.608 87.7366 154.124 87.7366 154.628V161H90.2806V153.8C90.2806 153.4 90.2446 152.936 90.1726 152.408C90.1006 151.88 89.9646 151.34 89.7646 150.788C89.5646 150.236 89.2726 149.728 88.8886 149.264C88.5126 148.792 88.0206 148.412 87.4126 148.124C86.8046 147.836 86.0526 147.692 85.1566 147.692C84.2206 147.692 83.3886 147.86 82.6606 148.196C81.9406 148.532 81.3446 148.996 80.8726 149.588V148.04H78.6286V161ZM97.6423 161.348C99.2823 161.348 100.566 160.984 101.494 160.256C102.43 159.528 102.898 158.524 102.898 157.244C102.898 156.572 102.758 156.004 102.478 155.54C102.206 155.076 101.75 154.676 101.11 154.34C100.47 153.996 99.6063 153.684 98.5183 153.404C97.5023 153.148 96.7343 152.928 96.2143 152.744C95.7023 152.552 95.3543 152.36 95.1703 152.168C94.9863 151.968 94.8943 151.724 94.8943 151.436C94.8943 150.94 95.1303 150.552 95.6023 150.272C96.0743 149.984 96.6903 149.856 97.4503 149.888C98.2423 149.92 98.8863 150.12 99.3823 150.488C99.8783 150.848 100.17 151.336 100.258 151.952L102.826 151.484C102.682 150.332 102.118 149.412 101.134 148.724C100.15 148.028 98.9143 147.68 97.4263 147.68C95.9063 147.68 94.6863 148.036 93.7663 148.748C92.8463 149.452 92.3863 150.392 92.3863 151.568C92.3863 152.2 92.5223 152.74 92.7943 153.188C93.0743 153.628 93.5383 154.012 94.1863 154.34C94.8423 154.668 95.7263 154.98 96.8383 155.276C97.8543 155.548 98.6103 155.776 99.1063 155.96C99.6023 156.144 99.9263 156.34 100.078 156.548C100.238 156.748 100.318 157.012 100.318 157.34C100.318 157.9 100.094 158.34 99.6463 158.66C99.2063 158.98 98.5943 159.14 97.8103 159.14C96.9463 159.14 96.2223 158.948 95.6383 158.564C95.0623 158.18 94.6943 157.648 94.5343 156.968L91.9663 157.364C92.1903 158.628 92.7983 159.608 93.7903 160.304C94.7823 161 96.0663 161.348 97.6423 161.348ZM109.717 161.348C110.653 161.348 111.481 161.18 112.201 160.844C112.929 160.508 113.529 160.044 114.001 159.452V161H116.233V148.04H113.701V154.784C113.701 155.808 113.553 156.628 113.257 157.244C112.961 157.852 112.561 158.292 112.057 158.564C111.561 158.836 111.013 158.972 110.413 158.972C109.725 158.972 109.165 158.832 108.733 158.552C108.301 158.272 107.969 157.904 107.737 157.448C107.505 156.992 107.345 156.5 107.257 155.972C107.177 155.436 107.137 154.916 107.137 154.412V148.04H104.593V155.24C104.593 155.64 104.629 156.104 104.701 156.632C104.773 157.16 104.909 157.7 105.109 158.252C105.309 158.804 105.597 159.316 105.973 159.788C106.357 160.252 106.853 160.628 107.461 160.916C108.069 161.204 108.821 161.348 109.717 161.348ZM118.879 161H121.411V154.46C121.411 153.7 121.531 152.996 121.771 152.348C122.011 151.7 122.435 151.18 123.043 150.788C123.475 150.508 123.951 150.344 124.471 150.296C124.991 150.248 125.459 150.28 125.875 150.392V148.04C125.291 147.928 124.671 147.932 124.015 148.052C123.367 148.172 122.799 148.412 122.311 148.772C121.831 149.092 121.431 149.536 121.111 150.104V148.04H118.879V161ZM130.749 161.36C132.813 161.36 134.369 160.612 135.417 159.116V161H137.637V153.02C137.637 152.476 137.613 151.968 137.565 151.496C137.517 151.024 137.389 150.576 137.181 150.152C136.781 149.296 136.149 148.672 135.285 148.28C134.429 147.88 133.421 147.68 132.261 147.68C130.765 147.68 129.565 148.008 128.661 148.664C127.757 149.32 127.149 150.204 126.837 151.316L129.177 152.036C129.401 151.316 129.797 150.796 130.365 150.476C130.933 150.156 131.557 149.996 132.237 149.996C133.245 149.996 133.973 150.212 134.421 150.644C134.877 151.068 135.125 151.728 135.165 152.624C134.109 152.768 133.077 152.92 132.069 153.08C131.061 153.232 130.181 153.416 129.429 153.632C128.429 153.952 127.669 154.428 127.149 155.06C126.629 155.692 126.369 156.496 126.369 157.472C126.369 158.176 126.533 158.824 126.861 159.416C127.197 160 127.689 160.472 128.337 160.832C128.993 161.184 129.797 161.36 130.749 161.36ZM131.193 159.308C130.393 159.308 129.801 159.124 129.417 158.756C129.041 158.388 128.853 157.952 128.853 157.448C128.853 156.936 129.021 156.532 129.357 156.236C129.701 155.94 130.129 155.704 130.641 155.528C131.185 155.368 131.825 155.228 132.561 155.108C133.305 154.988 134.165 154.856 135.141 154.712C135.133 155.016 135.113 155.356 135.081 155.732C135.049 156.108 134.981 156.444 134.877 156.74C134.781 157.164 134.577 157.572 134.265 157.964C133.961 158.356 133.549 158.68 133.029 158.936C132.517 159.184 131.905 159.308 131.193 159.308ZM140.021 161H142.565V154.256C142.565 153.232 142.713 152.416 143.009 151.808C143.313 151.192 143.713 150.748 144.209 150.476C144.705 150.204 145.253 150.068 145.853 150.068C146.541 150.068 147.101 150.208 147.533 150.488C147.965 150.768 148.297 151.136 148.529 151.592C148.761 152.048 148.917 152.544 148.997 153.08C149.085 153.608 149.129 154.124 149.129 154.628V161H151.673V153.8C151.673 153.4 151.637 152.936 151.565 152.408C151.493 151.88 151.357 151.34 151.157 150.788C150.957 150.236 150.665 149.728 150.281 149.264C149.905 148.792 149.413 148.412 148.805 148.124C148.197 147.836 147.445 147.692 146.549 147.692C145.613 147.692 144.781 147.86 144.053 148.196C143.333 148.532 142.737 148.996 142.265 149.588V148.04H140.021V161ZM159.458 161.36C160.85 161.36 162.034 161.024 163.01 160.352C163.986 159.68 164.686 158.708 165.11 157.436L162.566 156.836C162.302 157.532 161.918 158.068 161.414 158.444C160.918 158.812 160.266 158.996 159.458 158.996C158.274 158.996 157.378 158.584 156.77 157.76C156.17 156.936 155.866 155.856 155.858 154.52C155.866 153.224 156.158 152.156 156.734 151.316C157.318 150.468 158.226 150.044 159.458 150.044C160.186 150.044 160.83 150.248 161.39 150.656C161.958 151.056 162.366 151.62 162.614 152.348L165.11 151.628C164.79 150.412 164.126 149.452 163.118 148.748C162.118 148.036 160.91 147.68 159.494 147.68C158.19 147.68 157.066 147.972 156.122 148.556C155.186 149.14 154.466 149.948 153.962 150.98C153.458 152.004 153.202 153.184 153.194 154.52C153.202 155.832 153.45 157.004 153.938 158.036C154.434 159.068 155.146 159.88 156.074 160.472C157.01 161.064 158.138 161.36 159.458 161.36ZM172.231 161.36C173.487 161.36 174.627 161.044 175.651 160.412C176.675 159.772 177.439 158.872 177.943 157.712L175.483 156.932C174.827 158.308 173.703 158.996 172.111 158.996C171.023 158.996 170.167 158.668 169.543 158.012C168.919 157.356 168.555 156.428 168.451 155.228H178.111C178.199 153.676 178.015 152.336 177.559 151.208C177.103 150.08 176.411 149.212 175.483 148.604C174.555 147.988 173.431 147.68 172.111 147.68C170.847 147.68 169.739 147.964 168.787 148.532C167.835 149.1 167.091 149.904 166.555 150.944C166.027 151.984 165.763 153.212 165.763 154.628C165.763 155.964 166.031 157.14 166.567 158.156C167.111 159.164 167.867 159.952 168.835 160.52C169.811 161.08 170.943 161.36 172.231 161.36ZM172.207 149.9C174.167 149.9 175.279 151.024 175.543 153.272H168.511C168.671 152.176 169.059 151.34 169.675 150.764C170.291 150.188 171.135 149.9 172.207 149.9ZM191.38 161.36C193.372 161.36 195.02 160.856 196.324 159.848C197.636 158.84 198.548 157.484 199.06 155.78L196.516 155.096C196.172 156.304 195.572 157.252 194.716 157.94C193.86 158.628 192.748 158.972 191.38 158.972C190.156 158.972 189.132 158.696 188.308 158.144C187.492 157.592 186.876 156.82 186.46 155.828C186.052 154.836 185.852 153.68 185.86 152.36C185.868 151.04 186.076 149.884 186.484 148.892C186.892 147.9 187.504 147.128 188.32 146.576C189.136 146.024 190.156 145.748 191.38 145.748C192.748 145.748 193.86 146.092 194.716 146.78C195.572 147.468 196.172 148.416 196.516 149.624L199.06 148.94C198.548 147.236 197.636 145.88 196.324 144.872C195.02 143.864 193.372 143.36 191.38 143.36C189.652 143.36 188.18 143.74 186.964 144.5C185.748 145.26 184.816 146.316 184.168 147.668C183.528 149.012 183.208 150.576 183.208 152.36C183.208 154.144 183.528 155.712 184.168 157.064C184.816 158.408 185.748 159.46 186.964 160.22C188.18 160.98 189.652 161.36 191.38 161.36ZM201.22 161H203.728V143.36H201.22V161ZM210.271 161.36C212.335 161.36 213.891 160.612 214.939 159.116V161H217.159V153.02C217.159 152.476 217.135 151.968 217.087 151.496C217.039 151.024 216.911 150.576 216.703 150.152C216.303 149.296 215.671 148.672 214.807 148.28C213.951 147.88 212.943 147.68 211.783 147.68C210.287 147.68 209.087 148.008 208.183 148.664C207.279 149.32 206.671 150.204 206.359 151.316L208.699 152.036C208.923 151.316 209.319 150.796 209.887 150.476C210.455 150.156 211.079 149.996 211.759 149.996C212.767 149.996 213.495 150.212 213.943 150.644C214.399 151.068 214.647 151.728 214.687 152.624C213.631 152.768 212.599 152.92 211.591 153.08C210.583 153.232 209.703 153.416 208.951 153.632C207.951 153.952 207.191 154.428 206.671 155.06C206.151 155.692 205.891 156.496 205.891 157.472C205.891 158.176 206.055 158.824 206.383 159.416C206.719 160 207.211 160.472 207.859 160.832C208.515 161.184 209.319 161.36 210.271 161.36ZM210.715 159.308C209.915 159.308 209.323 159.124 208.939 158.756C208.563 158.388 208.375 157.952 208.375 157.448C208.375 156.936 208.543 156.532 208.879 156.236C209.223 155.94 209.651 155.704 210.163 155.528C210.707 155.368 211.347 155.228 212.083 155.108C212.827 154.988 213.687 154.856 214.663 154.712C214.655 155.016 214.635 155.356 214.603 155.732C214.571 156.108 214.503 156.444 214.399 156.74C214.303 157.164 214.099 157.572 213.787 157.964C213.483 158.356 213.071 158.68 212.551 158.936C212.039 159.184 211.427 159.308 210.715 159.308ZM219.795 145.916H222.303V143.48H219.795V145.916ZM219.795 161H222.303V148.04H219.795V161ZM225.175 161H227.695V152.9C227.695 152.02 227.935 151.308 228.415 150.764C228.903 150.22 229.543 149.948 230.335 149.948C231.135 149.948 231.771 150.22 232.243 150.764C232.723 151.3 232.963 152.036 232.963 152.972L232.951 161H235.459L235.471 152.9C235.471 151.924 235.731 151.188 236.251 150.692C236.779 150.196 237.399 149.948 238.111 149.948C238.895 149.948 239.527 150.212 240.007 150.74C240.487 151.268 240.727 151.996 240.727 152.924L240.715 161H243.223L243.235 152.324C243.235 150.932 242.847 149.816 242.071 148.976C241.303 148.136 240.223 147.716 238.831 147.716C237.983 147.716 237.215 147.904 236.527 148.28C235.839 148.648 235.295 149.16 234.895 149.816C234.551 149.16 234.059 148.648 233.419 148.28C232.787 147.904 232.023 147.716 231.127 147.716C230.351 147.716 229.639 147.872 228.991 148.184C228.351 148.488 227.823 148.904 227.407 149.432V148.04H225.175V161Z" fill="#1E1B1B"/>
<path d="M161.147 84.0859H154.853C152.893 86.3195 150.433 88.04 147.668 89.1154V97.3604C147.668 104.333 151.705 110.586 158 113.449C164.295 110.586 168.332 104.333 168.332 97.3604V89.1163C165.566 88.0409 163.107 86.3204 161.147 84.0859ZM165.242 95.6785L156.856 104.064C156.593 104.327 156.248 104.459 155.904 104.459C155.559 104.459 155.214 104.327 154.951 104.064L150.758 99.8716C150.232 99.3451 150.232 98.4916 150.758 97.9651C151.284 97.4395 152.138 97.4395 152.664 97.9651L155.904 101.205L163.337 93.773C163.862 93.2465 164.716 93.2465 165.242 93.773C165.768 94.2994 165.768 95.152 165.242 95.6785ZM175.062 82.2891C171.177 82.2891 167.639 80.1544 165.826 76.7188C165.594 76.2767 165.134 76 164.635 76H151.365C150.865 76 150.406 76.2767 150.173 76.7188C148.361 80.1544 144.823 82.2891 140.93 82.2891C140.186 82.2891 139.582 82.8928 139.582 83.6367V97.3604C139.582 102.878 141.306 108.146 144.567 112.596C147.829 117.046 152.333 120.276 157.594 121.937C157.726 121.979 157.863 122 158 122C158.137 122 158.274 121.979 158.406 121.937C163.667 120.276 168.171 117.046 171.433 112.596C174.694 108.146 176.418 102.878 176.418 97.3604V83.6367C176.418 82.8928 175.806 82.2891 175.062 82.2891ZM171.027 97.2993C171.027 105.552 166.117 112.933 158.518 116.102C158.352 116.171 158.176 116.205 158 116.205C157.824 116.205 157.647 116.171 157.482 116.102C149.883 112.933 144.973 105.552 144.973 97.2993V88.1064C144.973 87.5243 145.346 87.0077 145.9 86.8262C148.76 85.8855 151.279 84.156 153.184 81.8246C153.44 81.511 153.824 81.3295 154.228 81.3295H161.772C162.185 81.3295 162.672 81.6494 162.816 81.8246C164.721 84.156 167.24 85.8855 170.1 86.8262C170.495 86.9555 170.796 87.2547 170.938 87.6276C170.94 87.6312 170.941 87.6357 170.943 87.6393C170.977 87.7318 171.001 87.8288 171.015 87.9286C171.016 87.9384 171.017 87.9492 171.018 87.9591C171.024 88.0076 171.027 88.0561 171.027 88.1064V97.2993Z" fill="#1E1B1B"/>
</svg>
