<svg width="316" height="232" viewBox="0 0 316 232" fill="none" xmlns="http://www.w3.org/2000/svg">
<rect width="316" height="232" fill="white"/>
<path d="M109.888 161H117.328C118.976 161 120.248 160.54 121.144 159.62C122.048 158.7 122.5 157.48 122.5 155.96C122.5 155.04 122.272 154.22 121.816 153.5C121.36 152.78 120.704 152.236 119.848 151.868C120.416 151.54 120.864 151.072 121.192 150.464C121.52 149.856 121.684 149.156 121.684 148.364C121.684 147.58 121.496 146.836 121.12 146.132C120.744 145.42 120.184 144.84 119.44 144.392C118.704 143.944 117.784 143.72 116.68 143.72H109.888V161ZM112.432 150.776V146.084H116.644C117.396 146.084 117.996 146.3 118.444 146.732C118.892 147.164 119.116 147.716 119.116 148.388C119.116 149.14 118.876 149.728 118.396 150.152C117.924 150.568 117.34 150.776 116.644 150.776H112.432ZM112.432 158.612V153.14H117.1C117.964 153.14 118.652 153.408 119.164 153.944C119.676 154.472 119.932 155.128 119.932 155.912C119.932 156.752 119.648 157.412 119.08 157.892C118.512 158.372 117.8 158.612 116.944 158.612H112.432ZM127.828 161.36C129.892 161.36 131.448 160.612 132.496 159.116V161H134.716V153.02C134.716 152.476 134.692 151.968 134.644 151.496C134.596 151.024 134.468 150.576 134.26 150.152C133.86 149.296 133.228 148.672 132.364 148.28C131.508 147.88 130.5 147.68 129.34 147.68C127.844 147.68 126.644 148.008 125.74 148.664C124.836 149.32 124.228 150.204 123.916 151.316L126.256 152.036C126.48 151.316 126.876 150.796 127.444 150.476C128.012 150.156 128.636 149.996 129.316 149.996C130.324 149.996 131.052 150.212 131.5 150.644C131.956 151.068 132.204 151.728 132.244 152.624C131.188 152.768 130.156 152.92 129.148 153.08C128.14 153.232 127.26 153.416 126.508 153.632C125.508 153.952 124.748 154.428 124.228 155.06C123.708 155.692 123.448 156.496 123.448 157.472C123.448 158.176 123.612 158.824 123.94 159.416C124.276 160 124.768 160.472 125.416 160.832C126.072 161.184 126.876 161.36 127.828 161.36ZM128.272 159.308C127.472 159.308 126.88 159.124 126.496 158.756C126.12 158.388 125.932 157.952 125.932 157.448C125.932 156.936 126.1 156.532 126.436 156.236C126.78 155.94 127.208 155.704 127.72 155.528C128.264 155.368 128.904 155.228 129.64 155.108C130.384 154.988 131.244 154.856 132.22 154.712C132.212 155.016 132.192 155.356 132.16 155.732C132.128 156.108 132.06 156.444 131.956 156.74C131.86 157.164 131.656 157.572 131.344 157.964C131.04 158.356 130.628 158.68 130.108 158.936C129.596 159.184 128.984 159.308 128.272 159.308ZM144.528 161V158.876C143.68 159.004 142.94 159.032 142.308 158.96C141.684 158.88 141.228 158.596 140.94 158.108C140.788 157.844 140.704 157.52 140.688 157.136C140.68 156.752 140.676 156.3 140.676 155.78V150.056H144.528V148.04H140.676V144.44H138.156V148.04H135.672V150.056H138.156V155.9C138.156 156.604 138.164 157.236 138.18 157.796C138.204 158.348 138.356 158.892 138.636 159.428C138.956 160.028 139.424 160.468 140.04 160.748C140.656 161.028 141.356 161.18 142.14 161.204C142.924 161.228 143.72 161.16 144.528 161ZM153.228 161V158.876C152.38 159.004 151.64 159.032 151.008 158.96C150.384 158.88 149.928 158.596 149.64 158.108C149.488 157.844 149.404 157.52 149.388 157.136C149.38 156.752 149.376 156.3 149.376 155.78V150.056H153.228V148.04H149.376V144.44H146.856V148.04H144.372V150.056H146.856V155.9C146.856 156.604 146.864 157.236 146.88 157.796C146.904 158.348 147.056 158.892 147.336 159.428C147.656 160.028 148.124 160.468 148.74 160.748C149.356 161.028 150.056 161.18 150.84 161.204C151.624 161.228 152.42 161.16 153.228 161ZM160.96 161.36C162.216 161.36 163.356 161.044 164.38 160.412C165.404 159.772 166.168 158.872 166.672 157.712L164.212 156.932C163.556 158.308 162.432 158.996 160.84 158.996C159.752 158.996 158.896 158.668 158.272 158.012C157.648 157.356 157.284 156.428 157.18 155.228H166.84C166.928 153.676 166.744 152.336 166.288 151.208C165.832 150.08 165.14 149.212 164.212 148.604C163.284 147.988 162.16 147.68 160.84 147.68C159.576 147.68 158.468 147.964 157.516 148.532C156.564 149.1 155.82 149.904 155.284 150.944C154.756 151.984 154.492 153.212 154.492 154.628C154.492 155.964 154.76 157.14 155.296 158.156C155.84 159.164 156.596 159.952 157.564 160.52C158.54 161.08 159.672 161.36 160.96 161.36ZM160.936 149.9C162.896 149.9 164.008 151.024 164.272 153.272H157.24C157.4 152.176 157.788 151.34 158.404 150.764C159.02 150.188 159.864 149.9 160.936 149.9ZM168.812 161H171.344V154.46C171.344 153.7 171.464 152.996 171.704 152.348C171.944 151.7 172.368 151.18 172.976 150.788C173.408 150.508 173.884 150.344 174.404 150.296C174.924 150.248 175.392 150.28 175.808 150.392V148.04C175.224 147.928 174.604 147.932 173.948 148.052C173.3 148.172 172.732 148.412 172.244 148.772C171.764 149.092 171.364 149.536 171.044 150.104V148.04H168.812V161ZM177.613 145.916H180.121V143.48H177.613V145.916ZM177.613 161H180.121V148.04H177.613V161ZM188.753 161.36C190.009 161.36 191.149 161.044 192.173 160.412C193.197 159.772 193.961 158.872 194.465 157.712L192.005 156.932C191.349 158.308 190.225 158.996 188.633 158.996C187.545 158.996 186.689 158.668 186.065 158.012C185.441 157.356 185.077 156.428 184.973 155.228H194.633C194.721 153.676 194.537 152.336 194.081 151.208C193.625 150.08 192.933 149.212 192.005 148.604C191.077 147.988 189.953 147.68 188.633 147.68C187.369 147.68 186.261 147.964 185.309 148.532C184.357 149.1 183.613 149.904 183.077 150.944C182.549 151.984 182.285 153.212 182.285 154.628C182.285 155.964 182.553 157.14 183.089 158.156C183.633 159.164 184.389 159.952 185.357 160.52C186.333 161.08 187.465 161.36 188.753 161.36ZM188.729 149.9C190.689 149.9 191.801 151.024 192.065 153.272H185.033C185.193 152.176 185.581 151.34 186.197 150.764C186.813 150.188 187.657 149.9 188.729 149.9ZM201.561 161.348C203.201 161.348 204.485 160.984 205.413 160.256C206.349 159.528 206.817 158.524 206.817 157.244C206.817 156.572 206.677 156.004 206.397 155.54C206.125 155.076 205.669 154.676 205.029 154.34C204.389 153.996 203.525 153.684 202.437 153.404C201.421 153.148 200.653 152.928 200.133 152.744C199.621 152.552 199.273 152.36 199.089 152.168C198.905 151.968 198.813 151.724 198.813 151.436C198.813 150.94 199.049 150.552 199.521 150.272C199.993 149.984 200.609 149.856 201.369 149.888C202.161 149.92 202.805 150.12 203.301 150.488C203.797 150.848 204.089 151.336 204.177 151.952L206.745 151.484C206.601 150.332 206.037 149.412 205.053 148.724C204.069 148.028 202.833 147.68 201.345 147.68C199.825 147.68 198.605 148.036 197.685 148.748C196.765 149.452 196.305 150.392 196.305 151.568C196.305 152.2 196.441 152.74 196.713 153.188C196.993 153.628 197.457 154.012 198.105 154.34C198.761 154.668 199.645 154.98 200.757 155.276C201.773 155.548 202.529 155.776 203.025 155.96C203.521 156.144 203.845 156.34 203.997 156.548C204.157 156.748 204.237 157.012 204.237 157.34C204.237 157.9 204.013 158.34 203.565 158.66C203.125 158.98 202.513 159.14 201.729 159.14C200.865 159.14 200.141 158.948 199.557 158.564C198.981 158.18 198.613 157.648 198.453 156.968L195.885 157.364C196.109 158.628 196.717 159.608 197.709 160.304C198.701 161 199.985 161.348 201.561 161.348Z" fill="#1E1B1B"/>
<path d="M176.5 80.5832C176.5 79.5708 175.679 78.75 174.667 78.75H167.333C166.321 78.75 165.5 79.5708 165.5 80.5832V84.25H176.5V80.5832Z" fill="#1E1B1B"/>
<path d="M154.5 80.5832C154.5 79.5708 153.679 78.75 152.667 78.75H145.333C144.321 78.75 143.5 79.5708 143.5 80.5832V84.25H154.5V80.5832Z" fill="#1E1B1B"/>
<path d="M138 86.0833V113.583C138 114.596 138.821 115.417 139.833 115.417H143.5V117.25H147.167V115.417H172.833V117.25H176.5V115.417H180.167C181.179 115.417 182 114.596 182 113.583V86.0833H138ZM152.667 111.75L156.333 100.75H150.833L163.667 89.75L160 100.75H165.5L152.667 111.75Z" fill="#1E1B1B"/>
</svg>
