<svg width="316" height="232" viewBox="0 0 316 232" fill="none" xmlns="http://www.w3.org/2000/svg">
<rect width="316" height="232" fill="white"/>
<path d="M102.873 161H110.313C111.961 161 113.233 160.54 114.129 159.62C115.033 158.7 115.485 157.48 115.485 155.96C115.485 155.04 115.257 154.22 114.801 153.5C114.345 152.78 113.689 152.236 112.833 151.868C113.401 151.54 113.849 151.072 114.177 150.464C114.505 149.856 114.669 149.156 114.669 148.364C114.669 147.58 114.481 146.836 114.105 146.132C113.729 145.42 113.169 144.84 112.425 144.392C111.689 143.944 110.769 143.72 109.665 143.72H102.873V161ZM105.417 150.776V146.084H109.629C110.381 146.084 110.981 146.3 111.429 146.732C111.877 147.164 112.101 147.716 112.101 148.388C112.101 149.14 111.861 149.728 111.381 150.152C110.909 150.568 110.325 150.776 109.629 150.776H105.417ZM105.417 158.612V153.14H110.085C110.949 153.14 111.637 153.408 112.149 153.944C112.661 154.472 112.917 155.128 112.917 155.912C112.917 156.752 112.633 157.412 112.065 157.892C111.497 158.372 110.785 158.612 109.929 158.612H105.417ZM122.781 161.36C124.069 161.36 125.189 161.072 126.141 160.496C127.093 159.912 127.829 159.108 128.349 158.084C128.877 157.052 129.141 155.86 129.141 154.508C129.141 153.172 128.881 151.992 128.361 150.968C127.841 149.936 127.105 149.132 126.153 148.556C125.201 147.972 124.077 147.68 122.781 147.68C121.509 147.68 120.397 147.968 119.445 148.544C118.493 149.12 117.753 149.92 117.225 150.944C116.697 151.968 116.433 153.156 116.433 154.508C116.433 155.844 116.693 157.028 117.213 158.06C117.733 159.092 118.465 159.9 119.409 160.484C120.361 161.068 121.485 161.36 122.781 161.36ZM122.781 158.996C121.573 158.996 120.657 158.592 120.033 157.784C119.409 156.968 119.097 155.876 119.097 154.508C119.097 153.188 119.397 152.116 119.997 151.292C120.597 150.46 121.525 150.044 122.781 150.044C124.005 150.044 124.925 150.448 125.541 151.256C126.165 152.064 126.477 153.148 126.477 154.508C126.477 155.836 126.169 156.916 125.553 157.748C124.945 158.58 124.021 158.996 122.781 158.996ZM136.206 161.36C137.022 161.36 137.75 161.224 138.39 160.952C139.038 160.68 139.598 160.3 140.07 159.812V161H142.302V143.72H139.782V148.928C139.334 148.528 138.814 148.22 138.222 148.004C137.63 147.788 136.974 147.68 136.254 147.68C135.038 147.68 133.986 147.98 133.098 148.58C132.218 149.172 131.538 149.984 131.058 151.016C130.578 152.04 130.338 153.204 130.338 154.508C130.338 155.804 130.574 156.968 131.046 158C131.526 159.032 132.206 159.852 133.086 160.46C133.966 161.06 135.006 161.36 136.206 161.36ZM136.554 159.092C135.754 159.092 135.09 158.888 134.562 158.48C134.034 158.072 133.642 157.524 133.386 156.836C133.13 156.14 133.002 155.364 133.002 154.508C133.002 153.66 133.13 152.892 133.386 152.204C133.65 151.516 134.05 150.968 134.586 150.56C135.122 150.152 135.806 149.948 136.638 149.948C137.822 149.948 138.69 150.372 139.242 151.22C139.794 152.068 140.07 153.164 140.07 154.508C140.07 155.852 139.794 156.952 139.242 157.808C138.69 158.664 137.794 159.092 136.554 159.092ZM146.691 166.76H149.079L156.231 148.04H153.687L150.027 157.784L146.199 148.04H143.583L148.827 160.94L146.691 166.76ZM165.136 161H167.632L171.34 148.076L175.048 161H177.544L182.572 143.72H179.932L176.296 156.788L172.66 143.72L170.02 143.732L166.384 156.788L162.748 143.72H160.12L165.136 161ZM188.063 161.36C189.351 161.36 190.471 161.072 191.423 160.496C192.375 159.912 193.111 159.108 193.631 158.084C194.159 157.052 194.423 155.86 194.423 154.508C194.423 153.172 194.163 151.992 193.643 150.968C193.123 149.936 192.387 149.132 191.435 148.556C190.483 147.972 189.359 147.68 188.063 147.68C186.791 147.68 185.679 147.968 184.727 148.544C183.775 149.12 183.035 149.92 182.507 150.944C181.979 151.968 181.715 153.156 181.715 154.508C181.715 155.844 181.975 157.028 182.495 158.06C183.015 159.092 183.747 159.9 184.691 160.484C185.643 161.068 186.767 161.36 188.063 161.36ZM188.063 158.996C186.855 158.996 185.939 158.592 185.315 157.784C184.691 156.968 184.379 155.876 184.379 154.508C184.379 153.188 184.679 152.116 185.279 151.292C185.879 150.46 186.807 150.044 188.063 150.044C189.287 150.044 190.207 150.448 190.823 151.256C191.447 152.064 191.759 153.148 191.759 154.508C191.759 155.836 191.451 156.916 190.835 157.748C190.227 158.58 189.303 158.996 188.063 158.996ZM196.34 161H198.872V154.46C198.872 153.7 198.992 152.996 199.232 152.348C199.472 151.7 199.896 151.18 200.504 150.788C200.936 150.508 201.412 150.344 201.932 150.296C202.452 150.248 202.92 150.28 203.336 150.392V148.04C202.752 147.928 202.132 147.932 201.476 148.052C200.828 148.172 200.26 148.412 199.772 148.772C199.292 149.092 198.892 149.536 198.572 150.104V148.04H196.34V161ZM204.89 161H207.446V154.76L212.87 161H216.278L210.35 154.52L215.726 148.04H212.534L207.446 154.28V143.72H204.902L204.89 161Z" fill="#1E1B1B"/>
<path d="M184.835 90.8573C184.57 90.5343 184.175 90.3457 183.76 90.3457H178.49C177.19 86.9158 175.496 83.5553 173.57 82.2867C166.909 77.9044 149.239 77.9044 142.578 82.2867C140.651 83.5567 138.964 86.9214 137.656 90.3457H132.387C131.968 90.3457 131.574 90.5343 131.312 90.8573C131.049 91.1789 130.943 91.6046 131.029 92.0135L131.81 95.7956C131.943 96.4402 132.511 96.9005 133.167 96.9005H134.728C133.221 98.639 132.491 100.828 132.481 103.019C132.471 105.725 133.498 108.17 135.377 109.901C135.398 109.919 135.419 109.931 135.438 109.949V115.241C135.438 116.387 136.37 117.32 137.518 117.32H142.378C143.526 117.32 144.458 116.387 144.458 115.241V113.114H171.688V115.241C171.688 116.387 172.619 117.32 173.767 117.32H178.628C179.773 117.32 180.707 116.387 180.707 115.241V110.053C182.701 108.227 183.653 105.715 183.666 103.207C183.674 100.942 182.91 98.6723 181.315 96.8977H182.98C183.638 96.8977 184.206 96.4375 184.337 95.7914L185.119 92.0108C185.199 91.6046 185.098 91.1817 184.835 90.8573ZM144.861 85.7596C150.171 82.2646 165.974 82.2646 171.281 85.7596C172.313 86.4362 173.64 89.1715 174.855 92.521H141.29C142.503 89.1729 143.83 86.4389 144.861 85.7596ZM138.642 103.54C138.642 101.28 140.475 99.4501 142.733 99.4501C144.994 99.4501 146.824 101.28 146.824 103.54C146.824 105.8 144.994 107.631 142.733 107.631C140.475 107.631 138.642 105.8 138.642 103.54ZM173.466 107.631C171.208 107.631 169.375 105.8 169.375 103.54C169.375 101.28 171.208 99.4501 173.466 99.4501C175.727 99.4501 177.557 101.28 177.557 103.54C177.557 105.8 175.725 107.631 173.466 107.631Z" fill="#1E1B1B"/>
</svg>
