<svg width="316" height="232" viewBox="0 0 316 232" fill="none" xmlns="http://www.w3.org/2000/svg">
<rect width="316" height="232" fill="white"/>
<path d="M123.374 161.36C125.102 161.36 126.574 160.98 127.79 160.22C129.006 159.46 129.934 158.408 130.574 157.064C131.214 155.712 131.534 154.144 131.534 152.36C131.534 150.576 131.214 149.012 130.574 147.668C129.934 146.316 129.006 145.26 127.79 144.5C126.574 143.74 125.102 143.36 123.374 143.36C121.646 143.36 120.174 143.74 118.958 144.5C117.742 145.26 116.81 146.316 116.162 147.668C115.522 149.012 115.202 150.576 115.202 152.36C115.202 154.144 115.522 155.712 116.162 157.064C116.81 158.408 117.742 159.46 118.958 160.22C120.174 160.98 121.646 161.36 123.374 161.36ZM123.374 158.972C121.542 158.956 120.162 158.344 119.234 157.136C118.314 155.928 117.858 154.336 117.866 152.36C117.874 151.04 118.078 149.884 118.478 148.892C118.886 147.892 119.498 147.116 120.314 146.564C121.13 146.004 122.15 145.732 123.374 145.748C125.214 145.756 126.59 146.364 127.502 147.572C128.414 148.78 128.87 150.376 128.87 152.36C128.87 153.68 128.666 154.84 128.258 155.84C127.858 156.832 127.25 157.604 126.434 158.156C125.618 158.708 124.598 158.98 123.374 158.972ZM133.448 145.916H135.956V143.48H133.448V145.916ZM133.448 161H135.956V148.04H133.448V161ZM139.079 161H141.587V143.36H139.079V161ZM148.556 161H151.064V153.62H157.352V151.1H151.064V146.228H158.792V143.72H148.556V161ZM160.474 145.916H162.982V143.48H160.474V145.916ZM160.474 161H162.982V148.04H160.474V161ZM166.106 161H168.614V143.36H166.106V161ZM178.913 161V158.876C178.065 159.004 177.325 159.032 176.693 158.96C176.069 158.88 175.613 158.596 175.325 158.108C175.173 157.844 175.089 157.52 175.073 157.136C175.065 156.752 175.061 156.3 175.061 155.78V150.056H178.913V148.04H175.061V144.44H172.541V148.04H170.057V150.056H172.541V155.9C172.541 156.604 172.549 157.236 172.565 157.796C172.589 158.348 172.741 158.892 173.021 159.428C173.341 160.028 173.809 160.468 174.425 160.748C175.041 161.028 175.741 161.18 176.525 161.204C177.309 161.228 178.105 161.16 178.913 161ZM186.064 161.36C187.32 161.36 188.46 161.044 189.484 160.412C190.508 159.772 191.272 158.872 191.776 157.712L189.316 156.932C188.66 158.308 187.536 158.996 185.944 158.996C184.856 158.996 184 158.668 183.376 158.012C182.752 157.356 182.388 156.428 182.284 155.228H191.944C192.032 153.676 191.848 152.336 191.392 151.208C190.936 150.08 190.244 149.212 189.316 148.604C188.388 147.988 187.264 147.68 185.944 147.68C184.68 147.68 183.572 147.964 182.62 148.532C181.668 149.1 180.924 149.904 180.388 150.944C179.86 151.984 179.596 153.212 179.596 154.628C179.596 155.964 179.864 157.14 180.4 158.156C180.944 159.164 181.7 159.952 182.668 160.52C183.644 161.08 184.776 161.36 186.064 161.36ZM186.04 149.9C188 149.9 189.112 151.024 189.376 153.272H182.344C182.504 152.176 182.892 151.34 183.508 150.764C184.124 150.188 184.968 149.9 186.04 149.9ZM193.917 161H196.449V154.46C196.449 153.7 196.569 152.996 196.809 152.348C197.049 151.7 197.473 151.18 198.081 150.788C198.513 150.508 198.989 150.344 199.509 150.296C200.029 150.248 200.497 150.28 200.913 150.392V148.04C200.329 147.928 199.709 147.932 199.053 148.052C198.405 148.172 197.837 148.412 197.349 148.772C196.869 149.092 196.469 149.536 196.149 150.104V148.04H193.917V161Z" fill="#1E1B1B"/>
<path d="M174.172 92.1934C174.172 91.8501 174.041 91.5197 173.806 91.2697L163.024 79.8146C162.77 79.5441 162.415 79.3906 162.043 79.3906H148.566C148.182 79.3906 147.815 79.5552 147.559 79.8429L142.169 85.9074C141.949 86.1541 141.828 86.4726 141.828 86.8027V110.566C141.828 111.601 142.219 112.546 142.86 113.262C142.219 113.978 141.828 114.923 141.828 115.957C141.828 118.186 143.642 120 145.871 120H170.129C172.358 120 174.172 118.186 174.172 115.957C174.172 114.923 173.781 113.978 173.14 113.262C173.781 112.546 174.172 111.601 174.172 110.566V92.1934ZM158 111.914C155.771 111.914 153.957 110.1 153.957 107.871C153.957 107.316 154.116 106.304 155.487 103.941C156.179 102.747 156.862 101.756 156.891 101.714C157.143 101.35 157.557 101.132 158 101.132C158.443 101.132 158.857 101.35 159.109 101.714C159.138 101.756 159.821 102.747 160.513 103.941C161.884 106.304 162.043 107.316 162.043 107.871C162.043 110.1 160.229 111.914 158 111.914ZM167.935 96.0143C167.413 96.5052 166.75 96.7474 166.087 96.7474C165.37 96.7474 164.655 96.4631 164.125 95.8998L157.935 89.3234C156.914 88.239 156.967 86.5333 158.05 85.5134C159.135 84.4934 160.842 84.5448 161.86 85.6278L168.049 92.2042C169.07 93.2887 169.018 94.9943 167.935 96.0143Z" fill="#1E1B1B"/>
<path d="M156.652 107.872C156.652 108.614 157.257 109.219 158 109.219C158.743 109.219 159.347 108.615 159.348 107.872C159.336 107.459 158.776 106.285 158 104.978C157.224 106.286 156.663 107.46 156.652 107.872Z" fill="#1E1B1B"/>
<path d="M156.652 74H148.566C147.822 74 147.219 74.6034 147.219 75.3477V76.6953H158V75.3477C158 74.6034 157.397 74 156.652 74Z" fill="#1E1B1B"/>
</svg>
